<svg width="8" height="14" viewBox="0 0 8 14" fill="none" xmlns="http://www.w3.org/2000/svg">
<path d="M0.646001 0.645994C0.692447 0.59943 0.747622 0.562487 0.808367 0.537281C0.869112 0.512075 0.934234 0.4991 1 0.4991C1.06577 0.4991 1.13089 0.512075 1.19163 0.537281C1.25238 0.562487 1.30756 0.59943 1.354 0.645994L7.354 6.64599C7.40056 6.69244 7.43751 6.74761 7.46271 6.80836C7.48792 6.86911 7.50089 6.93423 7.50089 6.99999C7.50089 7.06576 7.48792 7.13088 7.46271 7.19163C7.43751 7.25237 7.40056 7.30755 7.354 7.35399L1.354 13.354C1.26011 13.4479 1.13278 13.5006 1 13.5006C0.867225 13.5006 0.739887 13.4479 0.646001 13.354C0.552114 13.2601 0.499369 13.1328 0.499369 13C0.499369 12.8672 0.552114 12.7399 0.646001 12.646L6.293 6.99999L0.646001 1.35399C0.599438 1.30755 0.562495 1.25237 0.537288 1.19163C0.512082 1.13088 0.499107 1.06576 0.499107 0.999994C0.499107 0.934226 0.512082 0.869105 0.537288 0.80836C0.562495 0.747615 0.599438 0.692439 0.646001 0.645994V0.645994Z" fill="#6187E9"/>
</svg>
