<svg width="8" height="14" viewBox="0 0 8 14" fill="none" xmlns="http://www.w3.org/2000/svg">
<path d="M7.354 0.645994C7.30755 0.59943 7.25238 0.562487 7.19163 0.537281C7.13089 0.512075 7.06577 0.4991 7 0.4991C6.93423 0.4991 6.86911 0.512075 6.80837 0.537281C6.74762 0.562487 6.69244 0.59943 6.646 0.645994L0.645999 6.64599C0.599436 6.69244 0.562493 6.74761 0.537287 6.80836C0.51208 6.86911 0.499105 6.93423 0.499105 6.99999C0.499105 7.06576 0.51208 7.13088 0.537287 7.19163C0.562493 7.25237 0.599436 7.30755 0.645999 7.35399L6.646 13.354C6.73989 13.4479 6.86722 13.5006 7 13.5006C7.13277 13.5006 7.26011 13.4479 7.354 13.354C7.44789 13.2601 7.50063 13.1328 7.50063 13C7.50063 12.8672 7.44789 12.7399 7.354 12.646L1.707 6.99999L7.354 1.35399C7.40056 1.30755 7.43751 1.25237 7.46271 1.19163C7.48792 1.13088 7.50089 1.06576 7.50089 0.999994C7.50089 0.934226 7.48792 0.869105 7.46271 0.80836C7.43751 0.747615 7.40056 0.692439 7.354 0.645994V0.645994Z" fill="#6187E9"/>
</svg>
