<svg width="195" height="72" viewBox="0 0 195 72" fill="none" xmlns="http://www.w3.org/2000/svg">
<path d="M9.3 40.5C15.4 38.4 21.5 36.9 25.5 38.4C29.5 39.9 33.4 40.7 37.4 42.2C40.4 43.3 47.3 43.5 52 40C54.9 37.9 59.1 35.1 63.7 40C63.5 38.5 62.2 37.2 61.9 36.2C61.5 34.8 61.6 34 60.1 32.4C57.9 30.1 54.9 30.8 53.2 31C50 31.4 49.7 29.1 50.3 26.6C50.9 24.1 61.8 4.4 59.3 2.4C55.9 -3.09944e-06 51.6 -0.300003 47.9 1.3C42.5 3.8 31.3 16.6 28.4 19.8C24.8 23.8 28.3 30.4 28.3 30.4C28.3 30.4 31.2 34.7 22.9 33C17.7 31.8 0 33.7 0 33.7L9.3 40.5Z" fill="#10F3E6"/>
<path d="M116.3 30.8C118.1 30.9 121.5 30.1 123.3 30.9C125.3 31.9 125.5 32.6 126.5 33.7C127.2 34.6 128.9 35.3 129.7 36.5C124.9 34.4 120.1 37.8 119.5 38.3C118.2 39.3 117.2 40.7 116.7 42.3C115.2 46.3 109 71.7 107.4 70.7C104.9 69.2 100.1 65.8 98.8 62.4C96.6 56.8 96 44.1 89.9 40.1C84 36.3 78 35 72.5 37.2C67 39.4 68.6 35.5 68.6 35.5C68.6 35.5 89.4 31.4 98.8 30C108.2 28.6 113.3 30.6 116.3 30.8Z" fill="#10F3E6"/>
<path d="M186.4 35.2C187.6 34.9 189.6 34.5 194.4 36.6C193.6 35.4 192 34.6 191.2 33.8C190.3 32.7 190.1 31.9 188 31C186.3 30.2 182.9 31.1 181 30.9C178 30.7 172.8 28.6 163.4 30.1C154 31.6 133.3 35.6 133.3 35.6C133.3 35.6 131.6 39.5 137.2 37.3C142.8 35.1 152.9 35.1 157.8 37.1C160 37.9 161.9 39.3 163.4 41.1C165.6 43.5 168 54.6 170.5 56.1C171.7 56.8 176.6 49.1 179.2 44.6C181.7 46.3 184.6 47.6 187.6 48.3C188.1 48.4 185.6 39.5 184.5 36C185.1 35.6 185.7 35.4 186.4 35.2Z" fill="#10F3E6"/>
</svg>
