<svg xmlns="http://www.w3.org/2000/svg" viewBox="0 0 500 500"><g id="freepik--background-complete--inject-68"><path d="M74.71,117.51s16.72,22.62,19.71,21c3.84-2.08,7-29.32,7-29.32S77.11,116.85,74.71,117.51Z" style="fill:#f5f5f5"></path><path d="M104.06,108.37s18.67,21,21.5,19.17c3.65-2.41,4.35-29.83,4.35-29.83S106.39,107.5,104.06,108.37Z" style="fill:#ebebeb"></path><path d="M132.37,96.52s20.49,19.28,23.14,17.16c3.41-2.73,1.65-30.1,1.65-30.1S134.61,95.44,132.37,96.52Z" style="fill:#f5f5f5"></path><path d="M158.33,83.06s21.58,18,24.1,15.77c3.25-2.93-.11-30.15-.11-30.15S160.51,81.85,158.33,83.06Z" style="fill:#ebebeb"></path><path d="M183.53,67.26S206.87,83,209.14,80.45c2.93-3.24-3.23-30-3.23-30S185.57,65.83,183.53,67.26Z" style="fill:#f5f5f5"></path><path d="M207.14,49.38s24.46,13.9,26.53,11.22c2.68-3.46-5.49-29.64-5.49-29.64S209.07,47.8,207.14,49.38Z" style="fill:#ebebeb"></path><path d="M45,124.06s14.89,23.87,18,22.5c4-1.77,9.29-28.69,9.29-28.69S47.49,123.59,45,124.06Z" style="fill:#ebebeb"></path><path d="M247.83,11.35l-.47.53L246,13.43l-2.28,2.5-1.46,1.6-1.7,1.78-4,4.17-4.89,4.85c-.87.88-1.8,1.75-2.76,2.66l-3,2.79c-.51.48-1,1-1.56,1.46l-1.63,1.46-3.38,3a358.25,358.25,0,0,1-34.46,26.81c-6.81,4.61-14.08,9.26-21.8,13.79s-15.9,8.87-24.43,13l-6.39,3-6.37,2.85-1.58.71-1.59.66L119.56,102l-3.13,1.31-3.14,1.23c-2.09.8-4.14,1.65-6.21,2.39L101,109.13c-2,.72-4,1.37-6,2l-3,1-3,.91c-7.84,2.5-15.41,4.44-22.51,6.19s-13.79,3-19.93,4.06l-4.48.76c-1.46.25-2.89.42-4.28.63-2.77.38-5.38.78-7.84,1s-4.74.55-6.84.74l-5.77.49c-.87.07-1.68.15-2.45.19l-2.16.12-3.38.18-2.08.11-.71,0,.71,0,2.08-.14,3.38-.2,2.15-.14c.77,0,1.59-.13,2.45-.2l5.76-.51c2.11-.2,4.39-.5,6.84-.77s5.07-.66,7.84-1c1.38-.21,2.81-.38,4.27-.64l4.48-.77c6.13-1,12.79-2.44,19.91-4.09s14.65-3.7,22.48-6.21l3-.91,3-1c2-.68,4-1.32,6-2l6.13-2.23c2.06-.74,4.11-1.59,6.2-2.39l3.13-1.23,3.14-1.31,3.15-1.32,1.59-.67,1.58-.71,6.37-2.85,6.38-3c8.52-4.16,16.67-8.54,24.41-13s15-9.17,21.79-13.77A360.42,360.42,0,0,0,219.2,39.59l3.39-3,1.64-1.46,1.55-1.45,3-2.79c1-.9,1.9-1.77,2.77-2.64l4.9-4.83,4-4.16q.92-.93,1.71-1.77l1.47-1.58c.9-1,1.67-1.82,2.29-2.49l1.42-1.53Z" style="fill:#455a64"></path><path d="M32.22,126c-.76.09-1.51.18-2.25.25l-2.51.29c-1.52.17-3,.34-4.33.46l-6.69.56-1.55.12-7.62.4c-.48,0-.73,0-.73,0l-.06-1.07L7.2,127l7.62-.47c.49,0,1-.08,1.52-.13l6.68-.59c1.33-.12,2.75-.29,4.23-.47l2.59-.3c1.91-.19,3.9-.48,6-.79l1.81-.26,1.5-.21c.9-.13,1.82-.26,2.75-.42l4.49-.77c5.55-.93,11.86-2.23,19.88-4.08,6.67-1.66,14.46-3.65,22.44-6.2l5.93-1.91,2.12-.71c1.3-.43,2.6-.87,3.91-1.34l6.12-2.22c1.33-.48,2.65-1,4-1.53.74-.29,1.47-.58,2.22-.86l6.25-2.54,6.31-2.69,6.37-2.85,6.36-3c8.16-4,16.36-8.35,24.38-13,7.14-4.19,14.46-8.82,21.76-13.75a364.66,364.66,0,0,0,34.41-26.69l7.47-6.77,2.47-2.32c.82-.76,1.62-1.51,2.37-2.26l4.9-4.83,7.18-7.5,3.71-4c.33-.35.51-.52.51-.52l.79.72-.48.55-6.84,7.44-4,4.18L232,28.71c-.75.77-1.56,1.53-2.39,2.31l-3.89,3.67-1,1-5,4.5A361.74,361.74,0,0,1,185.18,67c-7.31,5-14.66,9.6-21.83,13.81-8,4.67-16.27,9.06-24.46,13.06l-6.39,3-15.86,6.87L113.49,105l-2.23.87c-1.33.53-2.66,1.05-4,1.53l-6.13,2.22c-1.33.48-2.65.91-4,1.35l-2.1.7-6,1.92c-8,2.56-15.85,4.54-22.54,6.2-8,1.84-14.38,3.13-20,4.06l-4.48.76c-1,.17-1.9.3-2.82.42l-1.47.21-1.78.25C34.74,125.69,33.46,125.87,32.22,126Z" style="fill:#e0e0e0"></path><path d="M425.15,120.23S408.08,143.32,405,141.67c-3.93-2.12-7.14-29.92-7.14-29.92S422.69,119.56,425.15,120.23Z" style="fill:#f5f5f5"></path><path d="M395.2,110.91s-19.06,21.47-21.94,19.56C369.54,128,368.82,100,368.82,100S392.82,110,395.2,110.91Z" style="fill:#ebebeb"></path><path d="M366.31,98.82s-20.91,19.67-23.61,17.51c-3.48-2.79-1.68-30.72-1.68-30.72S364,97.72,366.31,98.82Z" style="fill:#f5f5f5"></path><path d="M339.83,85.08s-22,18.41-24.6,16.09c-3.32-3,.12-30.76.12-30.76S337.6,83.85,339.83,85.08Z" style="fill:#ebebeb"></path><path d="M314.11,69S290.3,85,288,82.42c-3-3.31,3.3-30.58,3.3-30.58S312,67.5,314.11,69Z" style="fill:#f5f5f5"></path><path d="M290,50.72s-25,14.18-27.08,11.45c-2.72-3.53,5.61-30.25,5.61-30.25S288.05,49.11,290,50.72Z" style="fill:#ebebeb"></path><path d="M455.42,126.92s-15.2,24.35-18.36,23c-4.08-1.8-9.47-29.26-9.47-29.26S452.92,126.44,455.42,126.92Z" style="fill:#ebebeb"></path><path d="M248.5,11.91l.48.54L250.4,14l2.33,2.56,1.48,1.63L256,20,260,24.3l5,4.94c.89.9,1.84,1.79,2.82,2.71l3,2.85c.52.49,1,1,1.59,1.49l1.66,1.49,3.46,3.1a363.58,363.58,0,0,0,35.16,27.35c6.94,4.71,14.36,9.45,22.24,14.08s16.22,9,24.92,13.3l6.52,3.1,6.5,2.92,1.61.72,1.62.68,3.23,1.35,3.2,1.34,3.2,1.25c2.13.82,4.22,1.68,6.33,2.44l6.26,2.27c2.07.74,4.14,1.4,6.17,2.09l3,1,3,.93c8,2.55,15.73,4.52,23,6.31s14.08,3.1,20.33,4.14l4.58.78c1.49.26,2.95.43,4.36.64,2.83.39,5.5.8,8,1s4.83.57,7,.76l5.88.49c.89.07,1.72.16,2.5.2l2.2.12,3.45.19,2.13.1c.47,0,.72,0,.72,0l-.72-.05-2.12-.14-3.45-.21-2.2-.14c-.78-.05-1.62-.13-2.5-.21l-5.88-.52c-2.15-.2-4.47-.5-7-.78s-5.17-.68-8-1.08c-1.41-.21-2.87-.38-4.36-.65l-4.57-.78c-6.25-1-13.05-2.49-20.31-4.17s-15-3.78-22.95-6.34l-3-.93-3-1c-2-.69-4.1-1.35-6.17-2.09l-6.25-2.27c-2.11-.76-4.2-1.63-6.33-2.44l-3.2-1.26-3.19-1.34-3.22-1.35-1.62-.68-1.61-.72-6.5-2.91L360,95.35c-8.69-4.25-17-8.72-24.91-13.29s-15.29-9.35-22.23-14a367.23,367.23,0,0,1-35.18-27.28l-3.46-3.09-1.67-1.49L271,34.67l-3-2.85c-1-.92-1.94-1.8-2.83-2.7l-5-4.92L256,20l-1.75-1.81-1.49-1.62L250.45,14,249,12.43C248.68,12.08,248.5,11.91,248.5,11.91Z" style="fill:#455a64"></path><path d="M468.5,128.92l2.29.27,2.57.29c1.55.17,3,.34,4.42.47l6.82.57,1.58.12,7.78.41c.49,0,.74,0,.74,0l.06-1.1-.74,0-7.77-.49-1.55-.12-6.81-.6c-1.37-.13-2.81-.3-4.32-.48l-2.64-.31c-1.95-.2-4-.49-6.14-.81l-1.84-.26-1.53-.22c-.92-.13-1.86-.26-2.81-.43l-4.58-.78c-5.66-1-12.11-2.28-20.28-4.17-6.81-1.69-14.76-3.72-22.9-6.32l-6.05-2-2.16-.73c-1.33-.44-2.66-.88-4-1.36l-6.25-2.27c-1.36-.49-2.71-1-4.06-1.55l-2.26-.89-6.38-2.59-6.44-2.74L366.76,98l-6.49-3.1c-8.33-4.06-16.7-8.53-24.88-13.26-7.28-4.28-14.75-9-22.2-14a371.78,371.78,0,0,1-35.11-27.24l-7.62-6.91-2.52-2.36c-.84-.78-1.65-1.55-2.41-2.31l-5-4.93-7.33-7.65-3.78-4.1-.52-.54-.81.74s.16.2.49.56l7,7.59,4.09,4.27,5,4.95c.77.78,1.6,1.56,2.45,2.35l4,3.74,1,1,5.12,4.59a369.94,369.94,0,0,0,35.21,27.4c7.47,5,15,9.79,22.28,14.09,8.2,4.76,16.6,9.24,25,13.32l6.52,3.11,16.18,7,3.22,1.26,2.27.89c1.36.54,2.71,1.07,4.07,1.56l6.26,2.27c1.35.48,2.7.93,4,1.37l2.14.72,6.08,1.95c8.2,2.62,16.17,4.64,23,6.33,8.2,1.88,14.67,3.2,20.37,4.15l4.58.77c1,.17,1.93.3,2.88.43l1.49.21,1.82.26C465.93,128.58,467.23,128.76,468.5,128.92Z" style="fill:#e0e0e0"></path><polygon points="254.97 479.5 255.36 481.53 180.77 485.06 180.38 483.03 254.97 479.5" style="fill:#e0e0e0"></polygon><path d="M167.46,492.11c-8,0-14.59-3.05-15.91-7.51a5.76,5.76,0,0,1,.9-5.06c2.11-3.05,6.93-5.14,12.89-5.58,8.95-.65,16.79,2.54,18.24,7.43a5.76,5.76,0,0,1-.9,5.06c-2.11,3.05-6.93,5.14-12.89,5.57C169,492.08,168.23,492.11,167.46,492.11Zm.09-14.23c-.63,0-1.27,0-1.91.07-5.26.39-8.77,2.22-9.9,3.86a1.8,1.8,0,0,0-.35,1.65c.76,2.6,7,5.09,14.1,4.57,5.26-.38,8.77-2.21,9.9-3.86a1.8,1.8,0,0,0,.35-1.65C179.05,480.17,173.86,477.88,167.55,477.88Z" style="fill:#e0e0e0"></path><path d="M162.3,474.6c-8,0-14.6-3.05-15.91-7.51a5.79,5.79,0,0,1,.89-5.06c2.11-3.06,6.93-5.14,12.9-5.58h0c8.95-.67,16.79,2.54,18.23,7.43a5.8,5.8,0,0,1-.89,5.06c-2.12,3.05-6.94,5.13-12.9,5.57C163.84,474.57,163.06,474.6,162.3,474.6Zm-1.83-14.16c-5.26.39-8.76,2.22-9.9,3.86a1.83,1.83,0,0,0-.35,1.65c.77,2.59,7,5.09,14.11,4.57,5.26-.38,8.76-2.21,9.9-3.86a1.78,1.78,0,0,0,.34-1.65c-.76-2.59-6.95-5.08-14.1-4.57Z" style="fill:#e0e0e0"></path><rect x="162.93" y="471.82" width="4" height="4.48" transform="translate(-127.4 66.04) rotate(-16.44)" style="fill:#e0e0e0"></rect><rect x="413.36" y="268.02" width="5.11" height="141.95" transform="matrix(1, -0.1, 0.1, 1, -31.74, 43.18)" style="fill:#fafafa"></rect><path d="M448.69,250.51c-9.2,2.38-13.36,7-13.36,7-11.17-8.39-37-.77-37-.77s5.27,14.64,14.85,18c14,4.88,24.9-3.91,24.9-3.91s5.19,4.34,17.19-.48S467.9,247.1,467.9,247.1A147.35,147.35,0,0,0,448.69,250.51Zm-27.2,20.55c-9.66.62-13.63-8.8-13.63-8.8a24.72,24.72,0,0,1,14.07-2.49c8.14,1,10.21,5.24,10.21,5.24S431.15,270.45,421.49,271.06Zm30.44-4.73c-9.31,2.64-12.06-2.16-12.06-2.16s.19-5.53,7.89-8.34,12.89-.52,12.89-.52S461.24,263.69,451.93,266.33Z" style="fill:#fafafa"></path><rect x="423.08" y="241.38" width="5.11" height="181.84" transform="translate(17.74 -21.56) rotate(2.96)" style="fill:#e0e0e0"></rect><path d="M433.8,245.16a16.25,16.25,0,1,1,16.25-16.25A16.27,16.27,0,0,1,433.8,245.16Zm0-28.5a12.25,12.25,0,1,0,12.25,12.25A12.27,12.27,0,0,0,433.8,216.66Z" style="fill:#e0e0e0"></path><path d="M469.26,245.16a16.25,16.25,0,1,1,16.25-16.25A16.27,16.27,0,0,1,469.26,245.16Zm0-28.5a12.25,12.25,0,1,0,12.25,12.25A12.27,12.27,0,0,0,469.26,216.66Z" style="fill:#e0e0e0"></path><rect x="447.52" y="226.91" width="8.71" height="4" style="fill:#e0e0e0"></rect><rect x="408.38" y="198.37" width="5.11" height="181.84" transform="translate(-26.81 42.44) rotate(-5.73)" style="fill:#e0e0e0"></rect><rect x="428.01" y="284.14" width="5.11" height="137.2" style="fill:#fafafa"></rect><polygon points="402.36 449.7 395.64 358.31 442.98 358.31 437.02 449.72 402.36 449.7" style="fill:#ebebeb"></polygon><path d="M471,280.14c-8.39,1.29-12.51,5-12.51,5-9.19-8.46-32.86-4-32.86-4s3.38,13.5,11.61,17.31c12.06,5.6,22.51-1.25,22.51-1.25s4.23,4.33,15.35,1.11,13.31-19.54,13.31-19.54A131.25,131.25,0,0,0,471,280.14Zm-26,15.86c-8.65-.31-11.34-9.05-11.34-9.05a22.12,22.12,0,0,1,12.74-1c7.17,1.57,8.62,5.58,8.62,5.58S453.6,296.32,444.94,296Zm27.52-1.49c-8.53,1.51-10.54-3-10.54-3s.65-4.91,7.76-6.72,11.52.69,11.52.69S481,293,472.46,294.51Z" style="fill:#fafafa"></path><path d="M416.62,188.47s-4-4.38-8.34-1.4-4.72,11.94-9.54,12.48a5,5,0,0,1-5.66-4s-1.35,4.31,2.91,8.19,16.45,1.48,22-7.14l1.1-1.4Z" style="fill:#e0e0e0"></path><path d="M416.62,188.47s-.63-5.88,4.55-6.84,11.77,5.14,15.57,2.12a5,5,0,0,0,1.19-6.81s4,2.09,3.72,7.85-10.61,12.66-20.6,10.44l-2.05-.18Z" style="fill:#e0e0e0"></path><polygon points="78.89 450.14 85.16 358.72 37.81 358.95 44.23 450.33 78.89 450.14" style="fill:#ebebeb"></polygon><rect x="71.5" y="201.11" width="5.11" height="167.27" transform="translate(130.96 573.4) rotate(-176.58)" style="fill:#ebebeb"></rect><path d="M65.07,240.37c-7.72,2.76-10.94,7-10.94,7-10.26-6.35-31.88,2.2-31.88,2.2s5.66,12.18,14.15,14.3c12.45,3.12,21.12-5.28,21.12-5.28s4.79,3.33,14.75-1.74S81.34,236,81.34,236A127.13,127.13,0,0,0,65.07,240.37Zm-21.8,19.78c-8.26,1.27-12.4-6.52-12.4-6.52a21.32,21.32,0,0,1,11.91-3.23c7.08.18,9.19,3.72,9.19,3.72S51.53,258.87,43.27,260.15Zm25.82-6.42c-7.81,3-10.54-.93-10.54-.93S58.28,248,64.69,245s11-1.44,11-1.44S76.89,250.74,69.09,253.73Z" style="fill:#e0e0e0"></path><polygon points="48.44 357.92 43.42 358.88 25.68 249.5 30.7 248.54 48.44 357.92" style="fill:#e0e0e0"></polygon><path d="M21.64,192.49s1.21,16.43,12.12,20.3,15.38-.19,15.38-.19,10,7.46,22.4,2.6c8.44-3.32,12.62-16.59,12.62-16.59s-23.35-5.89-33,2c0,0-3.88-4-12.18-5.77A131.49,131.49,0,0,0,21.64,192.49Zm32.6,14.72s1.7-3.91,8.94-5a22,22,0,0,1,12.66,1.71s-3.2,8.56-11.86,8.36S54.24,207.21,54.24,207.21Zm-25.83-7.64s4.64-2.21,11.55,0,7.35,7.17,7.35,7.17S45,211.13,36.6,209.1,28.41,199.57,28.41,199.57Z" style="fill:#ebebeb"></path></g><g id="freepik--character-3--inject-68"><path d="M383.89,186.68c-1.45-2.75-3.62-5.11-4.8-8-1.63-4-1.35-8.76-4-12.07-4.24-5.17-12.52-3.41-18.73-5.88-4.84-1.92-8.41-6.49-13.46-7.78-4.4-1.12-9,.49-13.1,2.53s-8,4.55-12.47,5.41c-3.19.62-6.47.35-9.7.61s-6.63,1.19-8.77,3.62-2.36,6.71.23,8.66c-5.72-.62-10.71,5.35-10.29,11.09s5,10.53,10.41,12.6,11.33,1.88,17,1.09c16.13-2.23,32.05-9.37,42.37-22l21.84,40.63c2.12-4.87,4.26-9.79,5.24-15S386.38,191.37,383.89,186.68Z" style="fill:#263238"></path><path d="M375.69,197.17l15.85,79.59a24.14,24.14,0,0,1-20.13,28.6h0a24.16,24.16,0,0,1-27.23-19.2c-1.18-6-2.19-11-2.35-11.6,0,0-20.7-.79-26.15-20.55-2.64-9.55-6.41-26.74-9.67-45a38.19,38.19,0,0,1,27.9-43.62l1.91-.5C356.77,160.69,372.05,176.12,375.69,197.17Z" style="fill:#ffbe9d"></path><path d="M341.72,274.28s12.8-2.27,23.92-14.14c0,0-2.36,15.88-22.61,19.29Z" style="fill:#eb996e"></path><path d="M318.43,222.58a2.93,2.93,0,0,0,3.48,2.14,2.8,2.8,0,0,0,2.25-3.32,2.93,2.93,0,0,0-3.48-2.14A2.79,2.79,0,0,0,318.43,222.58Z" style="fill:#263238"></path><path d="M312.83,217.64c.45.28,2.17-1.87,5.22-2.67s5.69.15,5.92-.31c.12-.21-.42-.78-1.58-1.24a8,8,0,0,0-4.85-.2,7.74,7.74,0,0,0-4,2.58C312.75,216.77,312.61,217.52,312.83,217.64Z" style="fill:#263238"></path><path d="M345.85,214.94a2.93,2.93,0,0,0,3.48,2.13,2.8,2.8,0,0,0,2.25-3.32,2.93,2.93,0,0,0-3.48-2.14A2.81,2.81,0,0,0,345.85,214.94Z" style="fill:#263238"></path><path d="M342.93,210.34c.45.27,2.18-1.88,5.22-2.67s5.69.14,5.92-.32c.12-.21-.41-.78-1.58-1.23a8,8,0,0,0-4.85-.2,7.68,7.68,0,0,0-4,2.58C342.86,209.46,342.71,210.22,342.93,210.34Z" style="fill:#263238"></path><path d="M337.81,235.84c0-.18-2,0-5.18.41-.8.12-1.58.16-1.85-.34a4.08,4.08,0,0,1-.09-2.44q.36-3.1.75-6.53c1-9.27,1.46-16.82,1.09-16.85s-1.47,7.45-2.45,16.72c-.22,2.29-.43,4.46-.64,6.54a4.69,4.69,0,0,0,.4,3.16,2,2,0,0,0,1.58.8,5.42,5.42,0,0,0,1.37-.16C335.92,236.5,337.84,236,337.81,235.84Z" style="fill:#263238"></path><path d="M349,238.49c-.5.1.36,3.41-1.85,6.5s-5.83,3.66-5.73,4.12c0,.22.95.44,2.45.09a8.48,8.48,0,0,0,4.83-3.25,7.45,7.45,0,0,0,1.35-5.4C349.82,239.13,349.23,238.41,349,238.49Z" style="fill:#263238"></path><path d="M339,196.35c.52.75,3.46-.44,7.15-.95s6.83-.29,7.11-1.16c.12-.41-.59-1.06-2-1.55a11.84,11.84,0,0,0-5.61-.45,12,12,0,0,0-5.25,2.06C339.26,195.17,338.77,196,339,196.35Z" style="fill:#263238"></path><path d="M310.59,206.05c.71.55,2.62-.72,5.14-1.41s4.78-.76,5.08-1.62c.13-.4-.39-1-1.5-1.42a7.73,7.73,0,0,0-8.24,2.44C310.37,205,310.26,205.78,310.59,206.05Z" style="fill:#263238"></path><path d="M377.93,212.28c.3-.24,12.56-7.61,15.69,6.06s-11.24,14-11.35,13.6S377.93,212.28,377.93,212.28Z" style="fill:#ffbe9d"></path><path d="M385.26,225.81c.05-.06.28.11.72.2a2.45,2.45,0,0,0,1.79-.37c1.32-.86,2-3.43,1.52-5.91a8.17,8.17,0,0,0-1.45-3.26,2.82,2.82,0,0,0-2.21-1.41,1.24,1.24,0,0,0-1.26,1c-.09.42.06.68,0,.72s-.35-.16-.37-.75a1.53,1.53,0,0,1,.35-1,1.77,1.77,0,0,1,1.23-.65,3.44,3.44,0,0,1,3,1.55,8.21,8.21,0,0,1,1.69,3.62c.55,2.77-.27,5.67-2.12,6.7a2.61,2.61,0,0,1-2.26.13C385.36,226.13,385.22,225.84,385.26,225.81Z" style="fill:#eb996e"></path><path d="M300.92,190.63c2.68,5,15,6.2,23.74,3,8.09-3,11.62-7.64,15.72-13.25,2.46-3.35,3.66-4.34,7.6-4.67a9.48,9.48,0,0,1,4.86,1.47,15.11,15.11,0,0,1,7.67,11.76c.94,8.76,5.37,17.15,9.69,25,.79,1.44,1.73,3,3.73,2.93a4,4,0,0,0,3-1.65c2.39-3.13,2.43-7.19,2.13-11a57.67,57.67,0,0,0-5.91-21.95,39.34,39.34,0,0,0-15.47-16.42,37.16,37.16,0,0,0-27.73-2.9,45.71,45.71,0,0,0-23.21,15.89c-2.73,3.48-5.06,7.42-5.8,11.78" style="fill:#263238"></path><path d="M310,161.53s-.59,0-1.66.06a17.72,17.72,0,0,0-4.52.72,12.85,12.85,0,0,0-2.91,1.33,10.86,10.86,0,0,0-1.44,1.06,7.57,7.57,0,0,0-1.22,1.46,6.44,6.44,0,0,0-1,3.91,5.49,5.49,0,0,0,.7,2.05,6.42,6.42,0,0,0,1.56,1.65l.77.61-1-.16c-2.81-.48-5.9,1.14-7.94,3.57a9.22,9.22,0,0,0-2.36,5.61,11.27,11.27,0,0,0,1.19,5.62,18.85,18.85,0,0,0,3,4.36,13.75,13.75,0,0,0,3.55,2.92,20.84,20.84,0,0,0,6.34,2.15l1.81.33a3.53,3.53,0,0,1,.63.14,2.67,2.67,0,0,1-.65,0c-.42,0-1-.12-1.83-.24a19.89,19.89,0,0,1-6.48-2,14,14,0,0,1-3.69-2.94,19.12,19.12,0,0,1-3.1-4.45,11.75,11.75,0,0,1-1.27-5.85,9.8,9.8,0,0,1,2.47-5.93,11.53,11.53,0,0,1,3.86-3,7.7,7.7,0,0,1,4.57-.72l-.19.44a6.54,6.54,0,0,1-1.68-1.8,5.76,5.76,0,0,1-.75-2.25,6.68,6.68,0,0,1,1.1-4.19,7.73,7.73,0,0,1,1.3-1.53,10.61,10.61,0,0,1,1.52-1.08,13.1,13.1,0,0,1,3-1.31,16.1,16.1,0,0,1,4.61-.58,12.16,12.16,0,0,1,1.23,0A2.14,2.14,0,0,1,310,161.53Z" style="fill:#455a64"></path><path d="M319.59,194.93a4.36,4.36,0,0,1-.94.21c-.6.11-1.49.24-2.59.33a26,26,0,0,1-8.61-.53,15.87,15.87,0,0,1-4.41-1.86,15.12,15.12,0,0,1-3-2.47,17.94,17.94,0,0,1-1.67-2,3.43,3.43,0,0,1-.5-.82c.08-.06.87,1.06,2.43,2.59a16.45,16.45,0,0,0,3,2.32,16.15,16.15,0,0,0,4.29,1.77,29.28,29.28,0,0,0,8.46.66C318.23,195,319.58,194.83,319.59,194.93Z" style="fill:#455a64"></path><path d="M377.73,178.05a5.93,5.93,0,0,0-3.18-.25,7.68,7.68,0,0,0-3.1,1.5,14,14,0,0,0-2.76,3.28c-.84,1.29-1.58,2.59-2.37,3.7a13.22,13.22,0,0,1-2.45,2.68,7.05,7.05,0,0,1-2.13,1.21,2.4,2.4,0,0,1-.88.18,11.14,11.14,0,0,0,2.78-1.67,14.15,14.15,0,0,0,2.29-2.68c.75-1.09,1.47-2.39,2.32-3.71a13.52,13.52,0,0,1,2.91-3.36,7.55,7.55,0,0,1,3.33-1.5,5.06,5.06,0,0,1,2.45.18A2,2,0,0,1,377.73,178.05Z" style="fill:#455a64"></path><path d="M381.88,184.92a13.19,13.19,0,0,0-3.2.9,15,15,0,0,0-3,2.05,25,25,0,0,1-3.65,2.67,21.68,21.68,0,0,1-7.71,2.77,18.64,18.64,0,0,1-2.48.22,3,3,0,0,1-.92-.07c0-.09,1.3-.1,3.33-.51a23.66,23.66,0,0,0,7.51-2.86,27.32,27.32,0,0,0,3.62-2.59,13.74,13.74,0,0,1,3.11-2,7,7,0,0,1,2.43-.59A2.77,2.77,0,0,1,381.88,184.92Z" style="fill:#455a64"></path><path d="M336.81,298.73s-20.09,16.65-22.93,23.5-59.94,121.39-59.94,121.39l42.65,7.06,39.65-77.08Z" style="fill:#BA68C8"></path><path d="M329,328.7a7.65,7.65,0,0,1,.08.83q.06.9.15,2.4c.12,2.14.29,5.15.5,8.84.42,7.51,1,17.79,1.62,29.15s1.05,21.71,1.25,29.19c.11,3.73.16,6.76.16,8.85,0,1,0,1.81,0,2.4a6,6,0,0,1,0,.84,4.83,4.83,0,0,1-.07-.83c0-.6-.05-1.4-.09-2.41-.08-2.14-.19-5.15-.32-8.84-.3-7.47-.81-17.78-1.41-29.17s-1.14-21.69-1.46-29.16c-.17-3.73-.28-6.76-.34-8.85,0-1,0-1.81-.05-2.4A4.16,4.16,0,0,1,329,328.7Z" style="fill:#263238"></path><path d="M391.35,262.38l5.09,10.11s43.28,9.89,52.49,22.61c13.07,18,17.79,155.58,17.79,155.58H334.41L329,306.38,342.45,292l-1.21-10.89Z" style="fill:#BA68C8"></path><g style="opacity:0.30000000000000004"><path d="M427.39,432.54c-24.84-39.89-49.81-80-80.45-115.59l-12.18,8.24c-1.32,5.24,1.22,12.08,5,15.93s8.41,7,11.21,11.62c2.69,4.42,3.43,9.71,4.5,14.77,5.41,25.63,20.56,48.51,39.69,66.41,6.77,6.34,14.61,12.36,23.82,13.42,4.35.5,9.66-.81,11.06-5C431.18,439,429.25,435.53,427.39,432.54Z"></path></g><path d="M416.5,338.34,424,371.17l-38.26-30.7-24.63,25s50.59,81,75.1,82.68c17.94,1.19,26.94-1.81,33.51-12.39,7.64-12.3,4.3-64.89-1-91.29-2.52-12.45-6-26.9-11.14-39.31-6.9-16.72-15.52-19.23-21.21-21.34l-38.38-11.38" style="fill:#BA68C8"></path><path d="M397.94,272.49l1.18.32,3.45,1,13.25,3.88c5.75,1.7,12.8,3.73,20.95,6.19a41.88,41.88,0,0,1,6.09,2.6,26.26,26.26,0,0,1,5.67,4.2,32.25,32.25,0,0,1,4.69,5.8,49.76,49.76,0,0,1,3.72,6.93c4.31,9.85,7.55,21.2,10.33,33.49a278.13,278.13,0,0,1,5.94,39.8c.6,7.06,1,14.32,1.17,21.74a189.06,189.06,0,0,1-.72,22.71,54.34,54.34,0,0,1-2.24,11.48,13.71,13.71,0,0,1-.53,1.39,8.38,8.38,0,0,1-.65,1.35,9.71,9.71,0,0,1-.78,1.28l-.83,1.24a27.75,27.75,0,0,1-4,4.47,22.71,22.71,0,0,1-5,3.33,26,26,0,0,1-5.75,2,51.18,51.18,0,0,1-12.18,1c-1.36,0-2.72-.06-4.08-.15a18.09,18.09,0,0,1-4.06-.53,27.9,27.9,0,0,1-7.37-3.39,79.25,79.25,0,0,1-12.38-10,234.29,234.29,0,0,1-20.43-23c-6.22-7.83-12-15.68-17.35-23.37s-10.43-15.25-15.08-22.6l-.09-.15.12-.13,24.65-25,.13-.13.14.11,38.21,30.74-.21.14c-2.39-10.57-4.24-18.78-5.49-24.36L417,340.51c-.16-.71-.27-1.25-.36-1.62s-.1-.55-.1-.55.05.18.14.54.22.91.38,1.61q.51,2.16,1.48,6.32c1.29,5.57,3.18,13.77,5.61,24.33l.09.37-.3-.24-38.29-30.64.26,0-24.6,25.07,0-.28c4.64,7.34,9.69,14.87,15.08,22.56s11.14,15.52,17.35,23.34a236,236,0,0,0,20.4,22.93,79.48,79.48,0,0,0,12.3,9.94,27.18,27.18,0,0,0,7.22,3.32,17.4,17.4,0,0,0,4,.52c1.35.09,2.7.13,4.06.15a51,51,0,0,0,12.05-1,26.32,26.32,0,0,0,5.65-1.92,22.25,22.25,0,0,0,4.92-3.26,27.17,27.17,0,0,0,3.92-4.38l.82-1.22a10.07,10.07,0,0,0,.76-1.24,8.77,8.77,0,0,0,.63-1.31c.18-.45.38-.89.52-1.35a54.82,54.82,0,0,0,2.21-11.37,188,188,0,0,0,.73-22.65c-.15-7.41-.56-14.66-1.15-21.71A278.67,278.67,0,0,0,466.85,337c-2.76-12.28-6-23.62-10.25-33.44a47.86,47.86,0,0,0-3.67-6.88,31.38,31.38,0,0,0-4.64-5.76,25.57,25.57,0,0,0-5.58-4.16,40.51,40.51,0,0,0-6-2.61l-20.91-6.27-13.22-4-3.44-1.05C398.33,272.63,397.94,272.49,397.94,272.49Z" style="fill:#263238"></path><path d="M440.63,396.25c-.09,0-.48-1.75-1.46-4.49a48.13,48.13,0,0,0-2-4.7,49.64,49.64,0,0,0-3.16-5.39,50.32,50.32,0,0,0-3.88-4.89,47.51,47.51,0,0,0-3.66-3.57c-2.2-1.9-3.71-2.91-3.66-3a5.79,5.79,0,0,1,1.1.65,29.52,29.52,0,0,1,2.8,2.06,39.85,39.85,0,0,1,3.77,3.52,45.3,45.3,0,0,1,4,4.93,44.34,44.34,0,0,1,3.16,5.47,38.78,38.78,0,0,1,1.92,4.79,30.25,30.25,0,0,1,.92,3.35A5.79,5.79,0,0,1,440.63,396.25Z" style="fill:#263238"></path><path d="M429.35,294c0,.09-1.75.73-4.29,2.38a27.56,27.56,0,0,0-8.26,8.29,27.89,27.89,0,0,0-4,11c-.39,3-.21,4.9-.31,4.9a4.86,4.86,0,0,1-.16-1.32,22.67,22.67,0,0,1,.11-3.62,26,26,0,0,1,12.4-19.57,22.55,22.55,0,0,1,3.23-1.65A5.32,5.32,0,0,1,429.35,294Z" style="fill:#263238"></path><path d="M326.92,298.63l8.17-8.72,16,4.31,9.73,6.21,12.73,30,9.93,12L363.3,362.88l-7.77-15.38s-9-5.68-12.82-11.35-5.51-8.78-5.51-8.78-5.34-2.41-6.37-4.82a12.08,12.08,0,0,1-1-4.3l2.58-4s-.34-3.62.69-5a4.81,4.81,0,0,1,2.06-1.72s-.86-3.27.35-4.48,7.21-3.51,7.21-3.51h0L336,297.31S327.43,305,326.92,298.63Z" style="fill:#ffbe9d"></path><path d="M343.17,305.83c0,.16-1.86.24-4.08.77s-3.94,1.27-4,1.13a12.68,12.68,0,0,1,8.08-1.9Z" style="fill:#eb996e"></path><path d="M339.67,312.72c0,.15-1.6.18-3.51.53s-3.43.83-3.48.69a7.59,7.59,0,0,1,3.39-1.21A7.51,7.51,0,0,1,339.67,312.72Z" style="fill:#eb996e"></path><path d="M334.76,323.49c-.14,0-.26-.69-.26-1.55s.11-1.54.26-1.55.26.7.26,1.55S334.91,323.49,334.76,323.49Z" style="fill:#eb996e"></path><path d="M337.17,326.72a7.37,7.37,0,0,0-1.19-2.78,7.11,7.11,0,0,0-2.49-1.71c0-.06.38-.11,1,.06a4.18,4.18,0,0,1,2.85,3.47C337.35,326.37,337.23,326.73,337.17,326.72Z" style="fill:#eb996e"></path><path d="M346.47,316.79a7.58,7.58,0,0,0-2.17-2,7.93,7.93,0,0,0-2.91-.65c0-.06.32-.23.91-.29a4.22,4.22,0,0,1,3.9,2.06C346.49,316.4,346.53,316.77,346.47,316.79Z" style="fill:#eb996e"></path><path d="M351.86,309.92c-.14.06-.64-1.19-2-2a9.61,9.61,0,0,0-2.68-.86c0-.06.31-.19.87-.19a4.11,4.11,0,0,1,2.08.6,4.17,4.17,0,0,1,1.49,1.56C351.89,309.55,351.92,309.9,351.86,309.92Z" style="fill:#eb996e"></path><path d="M355.5,306.53c-.07,0-.05-.42-.15-1a4.79,4.79,0,0,0-.94-2.21,5,5,0,0,0-1.91-1.46c-.58-.25-1-.32-1-.4s.43-.12,1.1.06a4.21,4.21,0,0,1,2.2,1.48,4.28,4.28,0,0,1,.9,2.49C355.73,306.14,355.57,306.54,355.5,306.53Z" style="fill:#eb996e"></path><path d="M350.17,298.73c0,.18-2.55.28-5.61.82s-5.36,1.68-5.43,1.53a12.63,12.63,0,0,1,5.33-2,25,25,0,0,1,4-.4A5.24,5.24,0,0,1,350.17,298.73Z" style="fill:#eb996e"></path><path d="M329,252.88c.17,1,7.21,37.25,7.21,37.25l2.41.75-7.5-40.67Z" style="fill:#263238"></path><path d="M334.87,240.36s-3.58-4.47-7.95-1.87-5.3,11.23-10,11.45a4.81,4.81,0,0,1-5.21-4.19s-1.57,4.07,2.3,8.08,15.78,2.46,21.64-5.52l1.15-1.28Z" style="fill:#455a64"></path><path d="M334.87,240.36s-.24-5.71,4.82-6.31,11,5.69,14.89,3a4.82,4.82,0,0,0,1.59-6.5s3.72,2.27,3.09,7.81-11,11.55-20.53,8.79l-2-.3Z" style="fill:#455a64"></path><path d="M311.4,246.15s-.07.46,0,1.29a5.6,5.6,0,0,0,1.22,3.18,5.4,5.4,0,0,0,4.49,1.91,8.08,8.08,0,0,0,5.23-3.16c1.45-1.72,2.5-3.67,3.77-5.23a12.2,12.2,0,0,1,2-2,8.11,8.11,0,0,1,2.21-1.19,5.61,5.61,0,0,1,3.58-.12,3.4,3.4,0,0,1,.88.43c.19.13.27.21.26.22s-.4-.24-1.2-.46a5.58,5.58,0,0,0-3.4.28,7.66,7.66,0,0,0-2.07,1.18,12.15,12.15,0,0,0-1.9,2c-1.22,1.54-2.25,3.48-3.76,5.27a8.39,8.39,0,0,1-5.58,3.29,5.64,5.64,0,0,1-4.81-2.15,5.49,5.49,0,0,1-1.14-3.41,4.9,4.9,0,0,1,.11-1C311.34,246.25,311.38,246.14,311.4,246.15Z" style="fill:#263238"></path><path d="M335.21,242.64a15.78,15.78,0,0,0-3.11,2.21,28.68,28.68,0,0,0-2.73,3.13,36.16,36.16,0,0,1-3.38,3.91,10.7,10.7,0,0,1-8.74,3,9.89,9.89,0,0,1-2.75-.74,3.45,3.45,0,0,1-.92-.52,16.26,16.26,0,0,0,3.71.89,10.9,10.9,0,0,0,4.07-.43,10.66,10.66,0,0,0,4.27-2.53,38.53,38.53,0,0,0,3.37-3.83,26.32,26.32,0,0,1,2.85-3.11,10.43,10.43,0,0,1,2.37-1.59A3.71,3.71,0,0,1,335.21,242.64Z" style="fill:#263238"></path><path d="M356.72,231.76s.08.07.2.24a3.11,3.11,0,0,1,.39.8,5.08,5.08,0,0,1,0,3.27,5.18,5.18,0,0,1-1.19,2,4.81,4.81,0,0,1-2.33,1.29,10.15,10.15,0,0,1-5.87-.83,19.07,19.07,0,0,0-5.53-1.68,7.69,7.69,0,0,0-4.44,1.17,8.23,8.23,0,0,0-2.3,2.16,10.84,10.84,0,0,1-.65,1,1,1,0,0,1,.09-.3,6.12,6.12,0,0,1,.39-.8,7.5,7.5,0,0,1,2.27-2.35,7.79,7.79,0,0,1,4.67-1.35,18.81,18.81,0,0,1,5.68,1.67,9.88,9.88,0,0,0,5.58.85,4.38,4.38,0,0,0,2.13-1.12,5,5,0,0,0,1.15-1.79,5.11,5.11,0,0,0,.18-3.09C356.92,232.14,356.67,231.78,356.72,231.76Z" style="fill:#263238"></path><path d="M358.46,233.78a3.09,3.09,0,0,1,.14,1.15,9.15,9.15,0,0,1-3.25,7,9.49,9.49,0,0,1-5.33,2.2,17,17,0,0,1-5.7-.83,21.54,21.54,0,0,0-4.52-.9,8.93,8.93,0,0,0-4.13.68,2.84,2.84,0,0,1,1-.57,7.85,7.85,0,0,1,3.14-.48,20.57,20.57,0,0,1,4.62.8,17.39,17.39,0,0,0,5.54.78,9.18,9.18,0,0,0,5.06-2,9,9,0,0,0,2.66-3.63A12.36,12.36,0,0,0,358.46,233.78Z" style="fill:#263238"></path><path d="M329,253.36a53.07,53.07,0,0,1,6.89-7.79,51.73,51.73,0,0,1-6.89,7.79Z" style="fill:#263238"></path><path d="M346.05,246.41a33.58,33.58,0,0,1-9.79-.76,29.2,29.2,0,0,1,4.91.22A29.61,29.61,0,0,1,346.05,246.41Z" style="fill:#263238"></path></g><g id="freepik--character-1--inject-68"><path d="M247.84,319.66l6.26-6.21s-1.62-7.43-1.27-10.86,5.89-17.23,5.89-17.23a3.71,3.71,0,0,1,3.28,3.39c.07,1.37-1.4,11.25-1.4,11.25h0c1.25.39,3.58.13,5.55-2.49,2.41-3.22,5.28-6.93,5.73-7.34s.84-5.82,1-9.82c.12-2.4,3.54-3.35,4.64-1.21a1.16,1.16,0,0,1,.14.66s3-2.94,4.11,3.6c0,0,4.21,3.13,3.59,6.9,0,0,3.34,5.37,3.38,8.25s-11.33,18.82-11.33,18.82L263.8,332.52Z" style="fill:#ffbe9d"></path><path d="M263,312.72a20.42,20.42,0,0,0,.89-3,10.63,10.63,0,0,0,0-3.35,10.2,10.2,0,0,0-1.44-3.82,10.4,10.4,0,0,0-2-2.35l-.11-.09,0-.18c.37-2.09.59-4.05.81-5.37a7.26,7.26,0,0,1,.48-2.12,2.14,2.14,0,0,1,0,.58c0,.47-.08,1-.14,1.58-.15,1.36-.27,3.21-.65,5.49l-.07-.27a10.47,10.47,0,0,1,2.14,2.45,10.19,10.19,0,0,1,1.47,4,9.87,9.87,0,0,1-.14,3.49,8.67,8.67,0,0,1-.78,2.22A2.18,2.18,0,0,1,263,312.72Z" style="fill:#eb996e"></path><path d="M279.9,303.82a16.87,16.87,0,0,1,1.3-2,8.75,8.75,0,0,0,1.72-5.26c-.1-1.09-.46-2.13-.52-3.16a3.47,3.47,0,0,1,.74-2.6,2.06,2.06,0,0,1,1.69-.69c.45.05.63.23.62.25s-.23-.07-.63-.05a2,2,0,0,0-1.41.74,3.18,3.18,0,0,0-.53,2.32c.08.94.45,2,.56,3.15a6.74,6.74,0,0,1-.6,3.23A11.83,11.83,0,0,1,281.5,302,8.27,8.27,0,0,1,279.9,303.82Z" style="fill:#eb996e"></path><path d="M273.45,301a27.19,27.19,0,0,1,2-2.51,15.13,15.13,0,0,0,3.38-6.73,8.5,8.5,0,0,0,.08-2.13,13.06,13.06,0,0,0-.38-2,4.41,4.41,0,0,1,.29-3.53,2,2,0,0,1,1.17-.82,1.83,1.83,0,0,1,1.06.06c.57.23.67.61.65.6s-.2-.27-.71-.41a1.71,1.71,0,0,0-1.86.77,4.12,4.12,0,0,0-.13,3.22,14.39,14.39,0,0,1,.42,2,8.7,8.7,0,0,1-.08,2.27,14.28,14.28,0,0,1-3.61,6.87c-.65.75-1.22,1.33-1.61,1.72S273.48,301.06,273.45,301Z" style="fill:#eb996e"></path><path d="M278,279.21a6.11,6.11,0,0,0-1.19,2.55,13.53,13.53,0,0,0-.15,3.09,16.65,16.65,0,0,1-.24,3.91,13.8,13.8,0,0,1-3.12,6.33,11.62,11.62,0,0,1-1.55,1.48c-.41.3-.65.45-.67.42s.83-.75,1.94-2.14a14.8,14.8,0,0,0,2.89-6.2,17.22,17.22,0,0,0,.27-3.79,12,12,0,0,1,.27-3.18A3.64,3.64,0,0,1,278,279.21Z" style="fill:#eb996e"></path><path d="M188.47,145.74c0-3.39-.6-7.36-3.59-9-3.89-2.1-10,1.43-12.89,4.75-14.31,16.27-15.28,38.41-21.45,59.18,0,0,6.84,5.95,15.58,4.75C177.08,186.93,188.38,167.26,188.47,145.74Z" style="fill:#BA68C8"></path><path d="M156.51,191.33s8.92,3.23,8.92,4,19.16-42.44,19.16-50.27c0-7.29-7-4.28-9.63,0S156.51,191.33,156.51,191.33Z" style="fill:#fff;opacity:0.30000000000000004"></path><path d="M174.65,165.15a6.09,6.09,0,0,1-.54,1.1c-.43.79-1,1.76-1.62,2.92-1.37,2.46-3.25,5.86-5.18,9.69s-3.5,7.38-4.57,10l-1.27,3.08A6.4,6.4,0,0,1,161,193a5.74,5.74,0,0,1,.32-1.18c.24-.76.62-1.83,1.11-3.15,1-2.64,2.52-6.24,4.45-10.09s3.88-7.22,5.33-9.64c.73-1.2,1.33-2.17,1.76-2.83A5.39,5.39,0,0,1,174.65,165.15Z" style="fill:#263238"></path><path d="M175.28,153a10.79,10.79,0,0,1-.72,1.52c-.5,1-1.21,2.35-2.07,4.08A126.09,126.09,0,0,0,162.36,187c-.43,1.88-.77,3.4-1,4.46A11.23,11.23,0,0,1,161,193a9.57,9.57,0,0,1,.21-1.67c.16-1.07.44-2.61.83-4.5a112.11,112.11,0,0,1,4.09-14.56,109.26,109.26,0,0,1,6.08-13.84c.9-1.72,1.66-3.09,2.21-4A11.13,11.13,0,0,1,175.28,153Z" style="fill:#263238"></path><path d="M58.14,266.72c2.5-9.1,8.43-16.78,13.6-24.67a170.39,170.39,0,0,0,15.39-29.37c2.39-5.88,5.46-12.79,11.7-13.92l50.84-6.33c10.72.45,19.52,9.48,23.21,19.56s3.39,21.1,3.26,31.83.05,21.86,4.59,31.58c1.61,3.45,3.78,6.82,3.86,10.62.08,4.65-1.18,6.88-4.32,10.3-3.69,4.05,1.82,14.77-1.85,17.05-5.23,3.25-20.51-2.17-26.65-1.72l-19.16,1.42c-5.53.41-11.34.77-16.37-1.57-4.55-2.11-8.1-6.27-13-7.44-5.88-1.4-11.79,1.95-17.82,2.45a19.57,19.57,0,0,1-19.93-14.42C57.6,287,55.64,275.81,58.14,266.72Z" style="fill:#263238"></path><path d="M168.06,222.14c-.61-13.14-14.52-26.49-27.62-25.32l-42.55,7.34,0,7.07L99,298.71h0s3.16,28.26,27,27.05c21.4-1.08,20.61-23.69,20.61-23.69l-.38-16.5s17.29-.4,21.13-22.22C169.3,252.5,168.73,236.74,168.06,222.14Z" style="fill:#ffbe9d"></path><path d="M158.26,239.26a2.81,2.81,0,0,1-2.75,2.79,2.7,2.7,0,0,1-2.85-2.58,2.81,2.81,0,0,1,2.75-2.79A2.68,2.68,0,0,1,158.26,239.26Z" style="fill:#263238"></path><path d="M163.32,234.41c-.36.36-2.46-1.24-5.48-1.29s-5.25,1.43-5.58,1.06c-.15-.17.21-.83,1.19-1.51a7.71,7.71,0,0,1,4.47-1.3,7.35,7.35,0,0,1,4.35,1.49C163.19,233.59,163.49,234.25,163.32,234.41Z" style="fill:#263238"></path><path d="M129.7,239.26a2.82,2.82,0,0,1-2.76,2.79,2.7,2.7,0,0,1-2.85-2.58,2.82,2.82,0,0,1,2.75-2.79A2.69,2.69,0,0,1,129.7,239.26Z" style="fill:#263238"></path><path d="M132.42,235.51c-.36.36-2.46-1.25-5.48-1.29s-5.25,1.43-5.58,1.05c-.15-.16.21-.82,1.19-1.5a7.63,7.63,0,0,1,4.47-1.3,7.42,7.42,0,0,1,4.35,1.48C132.28,234.68,132.59,235.35,132.42,235.51Z" style="fill:#263238"></path><path d="M144.92,255.79c0-.14,1.88-.4,4.92-.7.78-.06,1.51-.18,1.65-.62s-.11-1.18-.47-1.94l-2.15-5c-.81-1.82-4.77-12.08-4.79-13.06.34-.1,3,5.58,6,12.69.72,1.76,1.41,3.43,2.06,5a3.28,3.28,0,0,1,.34,2.56,1.92,1.92,0,0,1-1.29.95,6.75,6.75,0,0,1-1.32.14C146.83,256,144.93,255.94,144.92,255.79Z" style="fill:#263238"></path><path d="M146.4,285.7a55.65,55.65,0,0,1-29.16-8.31s7.22,15.4,29.15,13.72Z" style="fill:#eb996e"></path><path d="M135.86,255.91c.49,0,.44,3.26,3.21,5.63s6.26,2.07,6.28,2.53c0,.21-.79.63-2.27.64a8.09,8.09,0,0,1-5.24-1.93,7.09,7.09,0,0,1-2.48-4.71C135.26,256.69,135.64,255.89,135.86,255.91Z" style="fill:#263238"></path><path d="M135.11,223.51c-.36.93-3,.19-6.1.35s-5.78,1-6.09.12c-.14-.43.39-1.28,1.5-2.1a8.66,8.66,0,0,1,4.68-1.59,7.81,7.81,0,0,1,4.61,1.24C134.78,222.26,135.27,223.07,135.11,223.51Z" style="fill:#263238"></path><path d="M163.86,222.74c-.51.84-2.74.12-5.37.23s-4.81.82-5.37,0c-.24-.4.06-1.23,1-2.05a6.79,6.79,0,0,1,4.28-1.58,6.89,6.89,0,0,1,4.37,1.39C163.73,221.51,164.08,222.33,163.86,222.74Z" style="fill:#263238"></path><path d="M88.78,218.63l.92.05a35.71,35.71,0,0,1,2.66-15.89c4-8.91,12.54-14.79,21.55-17s18.44-1.2,27.51.73c4.28.9,11.62,3.67,14,8,1.17,2.07-3.86,4-4.77,6.23-4.25,10.18-13.74,17.64-24.11,19-2.36.3-4.88.34-6.86,1.74-2.43,1.73-4,4.61-4.93,7.65a30,30,0,0,0-.74,4.08c-.45,3.94-.16,8-1.31,11.8-1.41,4.71-5.85,8.4-6.06,13.32-.34,7.86,10.14,12.94,10,20.81-.07,3.42-2.21,6.4-4,9.35s-3.21,6.57-1.86,9.72c.71,1.64,2.08,2.89,3,4.43,2.89,5-.53,12-6,14s-11.72-.19-15.92-4.16-6.64-9.45-8.51-14.92A103.45,103.45,0,0,1,88.78,218.63Z" style="fill:#263238"></path><path d="M105.3,223.42c.44-3.88,5-20.69,24.44-26.68,12.71-3.92,32.14-.35,32.14-.35s-17.34-13.38-41.42-.76l-10.2,8s-6.91,9.33-6.91,18.66,1.18,13.23,1.18,13.23h0Z" style="fill:#BA68C8"></path><path d="M104.46,138.76c-2.21-2.58-5.28-5.17-8.59-4.44-4.32,1-6.6,7.61-6.64,12-.15,21.66,13.61,40.84,22.55,60.57,0,0,8.75-3.56,14.57-10.19C122.51,175.57,118.49,155.08,104.46,138.76Z" style="fill:#BA68C8"></path><path d="M115.11,202.42l7.62-5.68S106.45,141,99.35,142.06s-5.87,10.15-4.45,14.81S115.11,202.42,115.11,202.42Z" style="fill:#fff;opacity:0.30000000000000004"></path><path d="M118.14,200.26a7.45,7.45,0,0,1-.56-1.3c-.36-.94-.82-2.15-1.38-3.6-1.17-3-2.86-7.2-4.91-11.72s-4.09-8.52-5.61-11.4l-1.81-3.4a7.47,7.47,0,0,1-.62-1.28,7.63,7.63,0,0,1,.8,1.18c.48.77,1.15,1.91,2,3.32,1.61,2.84,3.7,6.84,5.76,11.37s3.7,8.73,4.79,11.8c.54,1.54,1,2.79,1.23,3.66A7.42,7.42,0,0,1,118.14,200.26Z" style="fill:#263238"></path><path d="M118.68,200a10.92,10.92,0,0,1-.51-1.55c-.33-1.1-.75-2.54-1.27-4.28-1.07-3.61-2.61-8.58-4.5-14s-3.78-10.28-5.19-13.77l-1.67-4.14a9.92,9.92,0,0,1-.56-1.54,10.67,10.67,0,0,1,.75,1.46c.45.95,1.08,2.35,1.82,4.08,1.5,3.46,3.44,8.3,5.34,13.74s3.39,10.43,4.37,14.07c.49,1.82.87,3.3,1.1,4.32A9.12,9.12,0,0,1,118.68,200Z" style="fill:#263238"></path><path d="M88.44,298.44s-20,5.14-24.69,11.8-32.3,50.09-32,55.72,2.87,12.63,5.51,17.75,12,12.9,19.71,12.47,11.85,0,14.11-3.41,27.8-50.29,27.8-50.29-17.71-19-18.49-19.89-7.23,2.94-7.23,2.94Z" style="fill:#BA68C8"></path><path d="M159.85,398.48s18.38-78.3,13-86.55c-1.09-1.66-4.16-6.88-8.93-8.31-7.29-2.19-17.36-5.18-17.36-5.18a16.61,16.61,0,0,1-14.12,10.85c-12.28,1.3-13.83-2.93-15-3.93l-6.52-8.52-22.48,1.6L69,307.55l3.49,32.3L61.06,395.57s-7.46,39.1-7.17,41.61-2.19,13.5-2.19,13.5l116.51-.24c.25-12.25-8.39-35.54-8.39-35.54Z" style="fill:#BA68C8"></path><path d="M81.49,318.09a4.3,4.3,0,0,1-.41.8l-1.28,2.22L75.1,329l-.07.12H74.9a8.42,8.42,0,0,0-5.68,2,31.39,31.39,0,0,0-4.72,5.25,22.28,22.28,0,0,1-3.67,3.83,31.76,31.76,0,0,1-4.13,2.71,37.26,37.26,0,0,0-6.88,4.52,12.39,12.39,0,0,0-3.24,4.43,18.28,18.28,0,0,0-.57,2,1.77,1.77,0,0,1,0-.53,7.54,7.54,0,0,1,.35-1.49,12,12,0,0,1,3.18-4.63,35.84,35.84,0,0,1,6.89-4.66,33.82,33.82,0,0,0,4-2.69A22.94,22.94,0,0,0,64.09,336a30.88,30.88,0,0,1,4.82-5.32,8.76,8.76,0,0,1,6-2.07l-.21.1c2-3.17,3.64-5.83,4.86-7.76.56-.89,1-1.6,1.38-2.16A4.22,4.22,0,0,1,81.49,318.09Z" style="fill:#263238"></path><g style="opacity:0.30000000000000004"><path d="M61,396c12-6.42,23.65-13.08,30.73-24.67,3.68-6.05,5.64-13,9.32-19.06,1.91-3.16,4.27-6,6.12-9.22s3.19-6.85,2.78-10.52a67.71,67.71,0,0,0-6.78,9A3.74,3.74,0,0,1,98,342.68h0C89.92,363.3,76.4,380.09,61,396"></path></g><path d="M98,343.22a4.45,4.45,0,0,1-.21.63c-.17.45-.4,1-.67,1.77s-.67,1.7-1.16,2.76-1,2.29-1.68,3.6a130.24,130.24,0,0,1-12,19.55,203.11,203.11,0,0,1-14.67,17.66c-2,2.16-3.64,3.87-4.79,5-.56.54-1,1-1.35,1.33A3,3,0,0,1,61,396a3.22,3.22,0,0,1,.42-.51l1.27-1.4c1.11-1.21,2.72-3,4.67-5.15,3.92-4.37,9.23-10.5,14.52-17.72A143.48,143.48,0,0,0,94,351.81c.69-1.29,1.22-2.51,1.73-3.55s.92-2,1.24-2.72.57-1.28.77-1.73A3.32,3.32,0,0,1,98,343.22Z" style="fill:#263238"></path><path d="M98.78,342.79a2.88,2.88,0,0,0,4.15-.66c3.46-5.07,10.83-16.09,10.15-16.88s-19-12.74-25.61-17a2.89,2.89,0,0,0-4,.84c-.63,1-1.35,2.11-2,3.24s-3.83,6.55-5.63,9.6a2.89,2.89,0,0,0,.73,3.76Z" style="fill:#BA68C8"></path><path d="M98.78,342.79s-.09,0-.24-.15l-.66-.47-2.49-1.87-9.12-6.94L80,328.55l-3.49-2.69a3.11,3.11,0,0,1-1.23-2.08,3.41,3.41,0,0,1,.62-2.39c1.61-2.76,3.31-5.66,5.06-8.67.43-.75.91-1.5,1.37-2.26l.69-1.14a4,4,0,0,1,.88-1.11,3.16,3.16,0,0,1,2.78-.63,3.93,3.93,0,0,1,1.3.63l1.16.76c6.19,4,12.07,7.88,17.39,11.44l3.88,2.62,1.84,1.28a10.88,10.88,0,0,1,.89.7l.12.09a.58.58,0,0,1,.09.25.84.84,0,0,1,0,.33,3.94,3.94,0,0,1-.18.55,33.86,33.86,0,0,1-2,3.65c-.68,1.13-1.36,2.2-2,3.22-2.64,4.06-4.8,7.31-6.45,9.5a2.93,2.93,0,0,1-3,.73,2.1,2.1,0,0,1-1-.54,3.57,3.57,0,0,0,1,.44,2.84,2.84,0,0,0,2.78-.78c1.54-2.16,3.69-5.48,6.28-9.55.65-1,1.31-2.1,2-3.23a32.33,32.33,0,0,0,1.92-3.6,3.29,3.29,0,0,0,.15-.48.51.51,0,0,0,0-.2h0l0,0,0,0,0,0-.1-.08c-.23-.2-.56-.42-.84-.63l-1.84-1.27-3.88-2.6L88.83,309.4l-1.16-.75a3.3,3.3,0,0,0-1.14-.57,2.63,2.63,0,0,0-2.32.53,3.37,3.37,0,0,0-.77,1l-.69,1.13c-.46.76-.93,1.49-1.37,2.24q-2.64,4.51-5.09,8.66a2.94,2.94,0,0,0-.57,2.08,2.64,2.64,0,0,0,1,1.79l3.48,2.71,6.24,4.86,9,7.07L98,342.09l.62.51Z" style="fill:#263238"></path><path d="M250,311.81l-37.23,30.48c-6.83-5.81-43.44-36.78-48.85-38.67l-28.58,43.7,32,18.84s38.17,22.11,48.58,20.31,52.4-55.07,52.4-55.07Z" style="fill:#BA68C8"></path><g style="opacity:0.30000000000000004"><path d="M94,422.87c15.66,1.09,32.12-7.36,41-20.27Z"></path></g><path d="M116.79,393.25c-.14,0-.26-10.21-.26-22.79s.12-22.79.26-22.79.26,10.2.26,22.79S116.94,393.25,116.79,393.25Z" style="fill:#fff"></path><path d="M136.93,382.23c-.07.12-9.15-5-20.27-11.45s-20.07-11.77-20-11.89,9.14,5,20.27,11.44S137,382.1,136.93,382.23Z" style="fill:#fff"></path><path d="M97.16,381.63c-.07-.13,8.66-5.14,19.51-11.2s19.69-10.87,19.76-10.74-8.66,5.14-19.51,11.2S97.23,381.75,97.16,381.63Z" style="fill:#fff"></path><path d="M122.16,358.12a9.85,9.85,0,0,1-1.43,1.7c-.94,1-2.25,2.36-3.72,3.84l0,0-.19.19-.18-.19c-1.45-1.49-2.74-2.86-3.65-3.87a9.78,9.78,0,0,1-1.4-1.7,8.88,8.88,0,0,1,1.67,1.45c1,.94,2.3,2.27,3.75,3.76h-.37l0,0c1.47-1.48,2.83-2.8,3.82-3.73A8.9,8.9,0,0,1,122.16,358.12Z" style="fill:#fff"></path><path d="M120.38,352.34a23.08,23.08,0,0,1-3.25,3.64l-.09.09-.18.18-.18-.17a22.07,22.07,0,0,1-3.3-3.43A22.82,22.82,0,0,1,117,355.7h-.37l.09-.09A22.36,22.36,0,0,1,120.38,352.34Z" style="fill:#fff"></path><path d="M130.76,368.67a9,9,0,0,1-2.18-.42c-1.33-.33-3.16-.81-5.17-1.38h0l-.26-.08.08-.25c.6-2,1.17-3.78,1.61-5.06a9.59,9.59,0,0,1,.81-2.06,9,9,0,0,1-.46,2.16c-.35,1.32-.86,3.12-1.46,5.11l-.18-.32h0c2,.57,3.82,1.11,5.13,1.52A9.6,9.6,0,0,1,130.76,368.67Z" style="fill:#fff"></path><path d="M135,364.32a24.5,24.5,0,0,1-4.77-1.07l-.12,0-.24-.07.06-.24a22,22,0,0,1,1.39-4.56,22.05,22.05,0,0,1-.89,4.68l-.18-.31.12,0A22.58,22.58,0,0,1,135,364.32Z" style="fill:#fff"></path><path d="M125.29,381.41a8.89,8.89,0,0,1-.86-2.05c-.47-1.29-1.08-3.08-1.72-5.06v-.05l-.09-.25.26-.08c2-.6,3.79-1.12,5.1-1.47a9.18,9.18,0,0,1,2.16-.46,9.33,9.33,0,0,1-2,.81c-1.29.44-3.07,1-5.06,1.62l.17-.33v.05c.65,2,1.2,3.79,1.58,5.11A9.88,9.88,0,0,1,125.29,381.41Z" style="fill:#fff"></path><path d="M130.45,382.48a23.39,23.39,0,0,1-1.76-4.57l0-.11-.07-.24.23-.09a22.83,22.83,0,0,1,4.57-1.37A23,23,0,0,1,129,378l.16-.33,0,.12A23.06,23.06,0,0,1,130.45,382.48Z" style="fill:#fff"></path><path d="M111.51,383.27a9.63,9.63,0,0,1,1.38-1.74c.9-1,2.17-2.44,3.59-4l0,0,.19-.2.19.19c1.49,1.44,2.81,2.77,3.76,3.75a9.58,9.58,0,0,1,1.45,1.66,8.7,8.7,0,0,1-1.71-1.39c-1-.92-2.37-2.2-3.87-3.65h.37l0,0c-1.42,1.52-2.73,2.88-3.7,3.85A9.82,9.82,0,0,1,111.51,383.27Z" style="fill:#fff"></path><path d="M113.38,388.3a23.89,23.89,0,0,1,3.14-3.74l.09-.09.17-.19.19.17a22.52,22.52,0,0,1,3.41,3.33,21.9,21.9,0,0,1-3.75-2.94l.36,0-.09.09A22.81,22.81,0,0,1,113.38,388.3Z" style="fill:#fff"></path><path d="M103.1,372a9.44,9.44,0,0,1,2.17.45c1.33.34,3.15.85,5.15,1.44l0,0,.26.07-.08.26c-.63,2-1.22,3.76-1.67,5a9.57,9.57,0,0,1-.84,2,9,9,0,0,1,.49-2.15c.36-1.31.9-3.11,1.52-5.09l.18.33,0,0c-2-.59-3.8-1.15-5.1-1.59A9.28,9.28,0,0,1,103.1,372Z" style="fill:#fff"></path><path d="M99.43,375.94a23.18,23.18,0,0,1,4.76,1.13l.12,0,.24.08-.06.24A22.52,22.52,0,0,1,103,382a21.8,21.8,0,0,1,.94-4.67l.18.31-.12,0A23,23,0,0,1,99.43,375.94Z" style="fill:#fff"></path><path d="M108.92,359.1a9.67,9.67,0,0,1,.62,2.13c.32,1.33.73,3.18,1.14,5.22v.05l.06.26-.27.05c-2,.37-3.89.69-5.23.89a9.52,9.52,0,0,1-2.2.22,9.21,9.21,0,0,1,2.13-.58c1.33-.3,3.17-.67,5.21-1l-.21.3v0c-.41-2.05-.76-3.9-1-5.25A9.94,9.94,0,0,1,108.92,359.1Z" style="fill:#fff"></path><path d="M103.14,358.4a23.12,23.12,0,0,1,1.24,4.73l0,.13,0,.24-.24.06a22.08,22.08,0,0,1-4.69.85,22.39,22.39,0,0,1,4.57-1.36l-.2.31,0-.12A23.52,23.52,0,0,1,103.14,358.4Z" style="fill:#fff"></path><path d="M172.85,323.45a3.73,3.73,0,0,1,0,.77c0,.56-.1,1.29-.17,2.21-.15,1.92-.43,4.69-.84,8.1-.81,6.83-2.24,16.23-4.22,26.53s-4,19.58-5.55,26.29c-.77,3.31-1.4,6-1.84,7.93-.22.89-.4,1.61-.53,2.15a3.49,3.49,0,0,1-.22.74,7.06,7.06,0,0,1,.12-.77c.11-.54.25-1.26.43-2.17.41-1.93,1-4.64,1.68-8,1.42-6.72,3.42-16,5.4-26.3s3.46-19.67,4.36-26.48c.46-3.41.8-6.17,1-8.08q.17-1.37.27-2.19A4.34,4.34,0,0,1,172.85,323.45Z" style="fill:#263238"></path><g style="opacity:0.30000000000000004"><path d="M172.51,326.93l-.16,1.56c-1.82,12.48-4,25.09-5.83,37.57C173.73,355.09,175.77,339.65,172.51,326.93Z"></path></g><polygon points="108.12 286.69 108.12 229.4 111.15 229.4 112.33 288.69 108.12 286.69" style="fill:#455a64"></polygon><path d="M158.7,225.7c-10.14,1.18-14.47,7.29-14.47,7.29-12.28-12.41-39.37-7.61-39.37-7.61s3.46,16.37,13.17,21.32c14.23,7.27,27.1-.49,27.1-.49s4.88,5.39,18.38,2,16.87-22.88,16.87-22.88A131.21,131.21,0,0,0,158.7,225.7ZM127.42,244c-10.38-.76-13.22-11.38-13.22-11.38a26.55,26.55,0,0,1,15.35-.58c8.53,2.21,11,7.74,11,7.74S137.8,244.81,127.42,244Zm33.12-.55c-10.31,1.43-13.95-4-13.95-4s2.43-6,11-7.84S171.45,233,171.45,233,170.85,242.05,160.54,243.49Z" style="fill:#BA68C8"></path><path d="M158.7,225.7c-10.14,1.18-14.47,7.29-14.47,7.29-12.28-12.41-39.37-7.61-39.37-7.61s3.46,16.37,13.17,21.32c14.23,7.27,27.1-.49,27.1-.49s4.88,5.39,18.38,2,16.87-22.88,16.87-22.88A131.21,131.21,0,0,0,158.7,225.7ZM127.42,244c-10.38-.76-13.22-11.38-13.22-11.38a26.55,26.55,0,0,1,15.35-.58c8.53,2.21,11,7.74,11,7.74S137.8,244.81,127.42,244Zm33.12-.55c-10.31,1.43-13.95-4-13.95-4s2.43-6,11-7.84S171.45,233,171.45,233,170.85,242.05,160.54,243.49Z" style="fill:none"></path><path d="M160.54,243.49a6.39,6.39,0,0,1,1.15-.3l.62-.14.73-.25.85-.28.91-.43a11.21,11.21,0,0,0,3.95-3.13,11.78,11.78,0,0,0,2.47-5.94l.11.21a20.56,20.56,0,0,0-13-1.41,18.46,18.46,0,0,0-7.06,2.8,13.39,13.39,0,0,0-4.49,5l0-.21a10.74,10.74,0,0,0,5,3.32,16.93,16.93,0,0,0,4.64.85c2.63.11,4.14-.18,4.15-.08a8.06,8.06,0,0,1-1.08.18,19.1,19.1,0,0,1-3.08.16,16.32,16.32,0,0,1-4.75-.76,10.94,10.94,0,0,1-5.22-3.41l-.08-.1.06-.12A13.58,13.58,0,0,1,151,234.2a18.85,18.85,0,0,1,7.24-2.89,20.7,20.7,0,0,1,13.32,1.53l.13.07,0,.14A12,12,0,0,1,169,239.2a11.18,11.18,0,0,1-4.12,3.14l-.95.41-.86.26-.75.21-.64.11A7.93,7.93,0,0,1,160.54,243.49Z" style="fill:#263238"></path><path d="M127.42,244c0-.08,1.43.08,3.92-.12a17.23,17.23,0,0,0,4.39-.93,11.2,11.2,0,0,0,2.46-1.21,7.27,7.27,0,0,0,2.14-2.07v.2a14.22,14.22,0,0,0-5.43-5.37,21.38,21.38,0,0,0-3.91-1.77,29.25,29.25,0,0,0-4.39-1,26.67,26.67,0,0,0-12.3,1.12l.14-.28a18.52,18.52,0,0,0,3.54,6.46,14.83,14.83,0,0,0,4.53,3.56,20,20,0,0,0,4.92,1.42s-.12,0-.35,0l-1-.1a10.63,10.63,0,0,1-1.6-.33,14.25,14.25,0,0,1-2.09-.73,14.93,14.93,0,0,1-4.7-3.56,18.49,18.49,0,0,1-3.7-6.6l-.07-.2.21-.08a26.68,26.68,0,0,1,12.55-1.19,28.49,28.49,0,0,1,4.49,1,21.72,21.72,0,0,1,4,1.82,14.5,14.5,0,0,1,5.57,5.62l.05.1-.06.09a7.37,7.37,0,0,1-2.31,2.19,11,11,0,0,1-2.55,1.22,16.82,16.82,0,0,1-4.49.84,21.06,21.06,0,0,1-2.92,0A4.61,4.61,0,0,1,127.42,244Z" style="fill:#263238"></path><path d="M158.7,225.7l.37-.06,1.1-.14c1-.11,2.4-.25,4.26-.37a134.56,134.56,0,0,1,16,.06h.19l0,.18a43.81,43.81,0,0,1-3.12,9.69,33.41,33.41,0,0,1-2.77,5,23.41,23.41,0,0,1-4,4.58,17.15,17.15,0,0,1-5.5,3.31c-.51.22-1.06.33-1.59.5l-1.63.36c-.54.13-1.1.24-1.66.32s-1.12.19-1.69.24a25.29,25.29,0,0,1-7-.08,12.91,12.91,0,0,1-6.67-2.91l.32.05a29.89,29.89,0,0,1-9.61,3.23,28.3,28.3,0,0,1-10.53-.2,26.52,26.52,0,0,1-8.2-3.12,20.78,20.78,0,0,1-6-6A39.33,39.33,0,0,1,107,233a50,50,0,0,1-2.42-7.57l-.05-.25.25,0a72.83,72.83,0,0,1,23.2.06,47.78,47.78,0,0,1,4.95,1.19,37.06,37.06,0,0,1,4.45,1.71,24.38,24.38,0,0,1,6.92,4.79l-.23,0a18.35,18.35,0,0,1,5.45-4.46,22.14,22.14,0,0,1,4.85-2c.68-.21,1.3-.33,1.83-.44s1-.18,1.35-.23l.83-.1.28,0a2,2,0,0,1-.28.06l-.82.14c-.36.06-.81.13-1.34.27s-1.14.25-1.81.47a22.8,22.8,0,0,0-4.77,2,18.29,18.29,0,0,0-5.33,4.43l-.11.14-.12-.12a24.31,24.31,0,0,0-6.85-4.68,35.72,35.72,0,0,0-4.41-1.66A47,47,0,0,0,128,225.6a72.92,72.92,0,0,0-23,0l.2-.29a49.57,49.57,0,0,0,2.4,7.48,38.88,38.88,0,0,0,3.8,7.21,20.13,20.13,0,0,0,5.89,5.88,26.29,26.29,0,0,0,8,3,27.7,27.7,0,0,0,10.34.2A29.43,29.43,0,0,0,145,246l.17-.09.15.14a12.57,12.57,0,0,0,6.38,2.76,24.36,24.36,0,0,0,6.87.09c.56,0,1.11-.16,1.67-.24a15.25,15.25,0,0,0,1.64-.3l1.61-.35c.51-.17,1.05-.28,1.54-.48a17.09,17.09,0,0,0,5.37-3.21,23.37,23.37,0,0,0,3.93-4.49,33.93,33.93,0,0,0,2.76-4.91,43.83,43.83,0,0,0,3.13-9.59l.16.2a145,145,0,0,0-15.93-.2c-1.86.09-3.29.19-4.26.27l-1.1.09A2.17,2.17,0,0,1,158.7,225.7Z" style="fill:#263238"></path><path d="M131.86,229.45a1.48,1.48,0,1,1-1.43-1.53A1.49,1.49,0,0,1,131.86,229.45Z" style="fill:#fff"></path><path d="M159.59,229a1.48,1.48,0,1,1-1.43-1.53A1.47,1.47,0,0,1,159.59,229Z" style="fill:#fff"></path><path d="M145.51,238.28a1.48,1.48,0,1,1-1.42-1.53A1.48,1.48,0,0,1,145.51,238.28Z" style="fill:#fff"></path><path d="M124.33,228.07a1.12,1.12,0,0,1-1.15,1.08A1.13,1.13,0,0,1,122.1,228a1.12,1.12,0,1,1,2.23.08Z" style="fill:#fff"></path><path d="M140,233a1.12,1.12,0,1,1-1.07-1.16A1.11,1.11,0,0,1,140,233Z" style="fill:#fff"></path><path d="M150.29,232.24a1.12,1.12,0,1,1-1.07-1.16A1.12,1.12,0,0,1,150.29,232.24Z" style="fill:#fff"></path><path d="M168.44,228.6a1.12,1.12,0,1,1-1.08-1.16A1.13,1.13,0,0,1,168.44,228.6Z" style="fill:#fff"></path><path d="M176.49,229a1.12,1.12,0,1,1-1.07-1.16A1.12,1.12,0,0,1,176.49,229Z" style="fill:#fff"></path><path d="M117.32,227.86a1.12,1.12,0,1,1-1.08-1.16A1.12,1.12,0,0,1,117.32,227.86Z" style="fill:#fff"></path><path d="M110.26,228.65a1.12,1.12,0,1,1-1.07-1.16A1.12,1.12,0,0,1,110.26,228.65Z" style="fill:#fff"></path><path d="M112.39,234.85a1.13,1.13,0,0,1-1.16,1.08,1.12,1.12,0,1,1,1.16-1.08Z" style="fill:#fff"></path><path d="M116.15,240.39a1.12,1.12,0,1,1-1.08-1.16A1.13,1.13,0,0,1,116.15,240.39Z" style="fill:#fff"></path><path d="M121.06,244.85a1.12,1.12,0,1,1-2.23-.08,1.12,1.12,0,0,1,2.23.08Z" style="fill:#fff"></path><path d="M128.07,247.17A1.12,1.12,0,1,1,127,246,1.13,1.13,0,0,1,128.07,247.17Z" style="fill:#fff"></path><path d="M142.31,244.31a1.12,1.12,0,1,1-1.07-1.16A1.12,1.12,0,0,1,142.31,244.31Z" style="fill:#fff"></path><path d="M158.69,246.61a1.12,1.12,0,0,1-2.24-.09,1.12,1.12,0,0,1,2.24.09Z" style="fill:#fff"></path><path d="M167.15,244.6a1.12,1.12,0,0,1-2.23-.08,1.12,1.12,0,0,1,1.16-1.08A1.1,1.1,0,0,1,167.15,244.6Z" style="fill:#fff"></path><path d="M174.41,237.37a1.12,1.12,0,1,1-1.07-1.16A1.12,1.12,0,0,1,174.41,237.37Z" style="fill:#fff"></path><path d="M149.88,245.16a1.12,1.12,0,0,1-2.23-.08,1.12,1.12,0,1,1,2.23.08Z" style="fill:#fff"></path><path d="M135.15,247.12a1.12,1.12,0,1,1-1.08-1.16A1.13,1.13,0,0,1,135.15,247.12Z" style="fill:#fff"></path><path d="M117,291.53c.07-1.39-5-8.43-6.75-10S100,283.06,100,283.06l2.3-4.34,4.15.21c3.92.5,5.45-4.78,5.45-4.78l-11.73-2.09a5.17,5.17,0,0,0-5.71,3.15L90,286.1l-1.35,22.42,18.9,12.53a6.28,6.28,0,0,0,1.31-2.37c.86-2.2.43-12,1.65-11.59S118,299.9,118,299.9,116.9,292.91,117,291.53Z" style="fill:#ffbe9d"></path><path d="M117,291.53a4.78,4.78,0,0,1,0,.55q0,.56.18,1.62c.18,1.42.49,3.51.91,6.19v.05l0,0c-.92,1.13-2,2.38-3.19,3.72-.61.66-1.26,1.35-2,2a14.22,14.22,0,0,1-1.15,1,4.15,4.15,0,0,1-.68.43,1.19,1.19,0,0,1-.45.11l-.15,0h0s0,0,0,0a3.89,3.89,0,0,0-.39,1.44c-.07.54-.12,1.09-.16,1.65-.06,1.13-.12,2.29-.19,3.49s-.13,2.43-.31,3.71a7.15,7.15,0,0,1-.2,1c-.11.33-.24.61-.37.92a5.9,5.9,0,0,1-1.07,1.75l-.11.12-.15-.1-18.92-12.5-.12-.08v-.15c.34-5.77.71-11.92,1.09-18.27.08-1.39.17-2.78.25-4.15v0l0,0c1-2.57,2.06-5.1,3.06-7.58.51-1.24,1-2.46,1.52-3.7a5.45,5.45,0,0,1,3-2.66,5.37,5.37,0,0,1,2-.33,12.87,12.87,0,0,1,1.92.27l3.65.66,7,1.26.26.05-.08.24a9.54,9.54,0,0,1-2,3.57,5,5,0,0,1-1.67,1.13,4.33,4.33,0,0,1-2,.24h0l-4.15-.23.19-.11-2.32,4.34-.23-.27a47.53,47.53,0,0,1,4.83-1.41,14.06,14.06,0,0,1,4.49-.47,2.39,2.39,0,0,1,1,.38,4.87,4.87,0,0,1,.73.7c.44.49.84,1,1.21,1.44.74.94,1.38,1.83,2,2.64a34.6,34.6,0,0,1,2.37,3.87,6.16,6.16,0,0,1,.44,1.1,1.21,1.21,0,0,1,0,.4s0-.14-.09-.39a7.24,7.24,0,0,0-.49-1.06,38.14,38.14,0,0,0-2.44-3.8c-.57-.8-1.23-1.67-2-2.6-.37-.46-.77-.94-1.21-1.41a5.43,5.43,0,0,0-.7-.66,2,2,0,0,0-.89-.31,13.33,13.33,0,0,0-4.37.5,44.76,44.76,0,0,0-4.78,1.44l-.45.16.22-.43,2.3-4.35,0-.11h.13l4.15.21h0a3.78,3.78,0,0,0,1.76-.22,4.51,4.51,0,0,0,1.51-1,9,9,0,0,0,1.93-3.38l.18.29-7-1.25-3.66-.64a12,12,0,0,0-1.83-.26,4.75,4.75,0,0,0-1.79.3,5,5,0,0,0-2.7,2.42c-.5,1.17-1,2.43-1.49,3.66-1,2.49-2,5-3.06,7.58l0-.08c-.09,1.37-.17,2.76-.25,4.16-.39,6.34-.76,12.49-1.11,18.26l-.11-.22,18.88,12.56h-.26a6.12,6.12,0,0,0,1-1.59,5.49,5.49,0,0,0,.55-1.78c.18-1.23.25-2.47.33-3.66s.14-2.37.21-3.5c.05-.56.1-1.12.17-1.67a3.67,3.67,0,0,1,.5-1.63.38.38,0,0,1,.27-.15l.17,0h.05a1,1,0,0,0,.3-.08,4.57,4.57,0,0,0,.62-.39c.4-.3.77-.63,1.13-1,.71-.67,1.36-1.35,2-2,1.22-1.31,2.29-2.55,3.22-3.66l0,.09c-.4-2.68-.66-4.78-.8-6.21-.07-.71-.11-1.26-.12-1.63A3.33,3.33,0,0,1,117,291.53Z" style="fill:#eb996e"></path><path d="M114.79,286.35c0,.07-.69-.32-1.84-.56a8.92,8.92,0,0,0-4.53.34,14.7,14.7,0,0,0-4,2.26,10.9,10.9,0,0,1-1.56,1.17,5.65,5.65,0,0,1,1.33-1.45,12.1,12.1,0,0,1,4.09-2.47,8.07,8.07,0,0,1,4.77-.2A3.46,3.46,0,0,1,114.79,286.35Z" style="fill:#eb996e"></path><path d="M106.49,293.22c0-.08.55-.44,1.29-1.26.38-.4.81-.92,1.36-1.45a5.45,5.45,0,0,1,2.11-1.35,4.81,4.81,0,0,1,4.38.7c.94.72,1.21,1.43,1.16,1.45a16.39,16.39,0,0,0-1.37-1.14,4.7,4.7,0,0,0-4-.51c-1.56.51-2.51,1.83-3.37,2.56A3.36,3.36,0,0,1,106.49,293.22Z" style="fill:#eb996e"></path><path d="M112.7,296.24c.06,0,.19.62.62,1.64a2.47,2.47,0,0,1,.07,2,10,10,0,0,1-1.62,1.75,5.21,5.21,0,0,0-1.7,3.58,5.66,5.66,0,0,0,.35,1.66c0,.05-.61-.48-.72-1.65a4.26,4.26,0,0,1,.33-2,7,7,0,0,1,1.36-2c.57-.63,1.29-1.07,1.58-1.61a2.25,2.25,0,0,0,0-1.69,9.16,9.16,0,0,1-.3-1.27C112.64,296.41,112.67,296.24,112.7,296.24Z" style="fill:#eb996e"></path></g><g id="freepik--character-2--inject-68"><path d="M219,170.72l56.65.28c14.43.19,26,11.54,25.64,25.21-.43,17.24.47,33.22,7.14,49.17,2.48,5.93,5.73,11.59,7.54,17.73s2,13.06-1.41,18.52l-18.86-5.15c0-1.85.09-3.7.14-5.55a8.23,8.23,0,0,1-5.12,5.42c-3.16,1.23-6.73,1-10.14.73a302.6,302.6,0,0,1-58.42-10.75c-2.53-.73-14.51.24-14.51.24C200.7,238.46,212.5,198.86,219,170.72Z" style="fill:#263238"></path><path d="M209.32,196c2.72-14.47,8.39-28.85,20.72-36.9C241,152,253,150.73,266,152.41c6.41.83,13.41,4.43,18.74,8.08,7.3,5,9.79,14.11,12.8,22.45,6,16.68,3.21,38.33-2.34,43.94L200,280.17c-11.33-7.2-8.92-34.54-3.87-47C200,223.64,206.85,209.19,209.32,196Z" style="fill:#263238"></path><path d="M230.76,171.47,274,162.68c13.76-.81,22.07,16.49,22.29,30.28.24,15.32-.06,34-2.41,45.34C289.2,261,271.5,263.13,271.5,263.13s-.07.34-.52,7.14l-.46,9.9c-6.64,18.28-42.6,12.35-45.4-1.15l-2-99.71A8.07,8.07,0,0,1,230.76,171.47Z" style="fill:#ffbe9d"></path><path d="M286.89,211.06a2.94,2.94,0,0,1-3,2.83,2.81,2.81,0,0,1-2.9-2.79,2.94,2.94,0,0,1,3-2.84A2.81,2.81,0,0,1,286.89,211.06Z" style="fill:#263238"></path><path d="M291.28,205.9c-.38.36-2.53-1.39-5.69-1.53s-5.55,1.33-5.88.93c-.16-.18.24-.86,1.29-1.54a8.05,8.05,0,0,1,4.73-1.22,7.78,7.78,0,0,1,4.51,1.69C291.17,205,291.47,205.73,291.28,205.9Z" style="fill:#263238"></path><path d="M257.62,208.24a3,3,0,0,1-3,2.84,2.81,2.81,0,0,1-2.9-2.8,2.94,2.94,0,0,1,3-2.83A2.82,2.82,0,0,1,257.62,208.24Z" style="fill:#263238"></path><path d="M260.46,203.59c-.39.37-2.54-1.38-5.7-1.52s-5.55,1.33-5.88.92c-.16-.18.24-.85,1.29-1.54a8.13,8.13,0,0,1,4.73-1.22,7.78,7.78,0,0,1,4.51,1.7C260.34,202.72,260.64,203.43,260.46,203.59Z" style="fill:#263238"></path><path d="M270.67,226.65c0-.18,2-.43,5.18-.69.81,0,1.58-.17,1.75-.71a4.16,4.16,0,0,0-.43-2.42l-2.1-6.26c-2.9-8.91-5-16.23-4.6-16.34s3,7,5.91,15.93l2,6.29a4.69,4.69,0,0,1,.27,3.19,2.07,2.07,0,0,1-1.38,1.12,5.4,5.4,0,0,1-1.38.12C272.66,226.91,270.67,226.83,270.67,226.65Z" style="fill:#263238"></path><path d="M271.5,263.13a52.91,52.91,0,0,1-30.71-8.59S248,270.73,271,269.67Z" style="fill:#eb996e"></path><path d="M259.83,232.08a4.21,4.21,0,0,1,3.59-1.75A5.5,5.5,0,0,1,268.3,233a3.38,3.38,0,0,1,.1,2.47c-.2.41,0,.21-.38.48a9.66,9.66,0,0,1-4,2.25,4.11,4.11,0,0,1-4.26-1.81A4.17,4.17,0,0,1,259.83,232.08Z" style="fill:#BA68C8"></path><path d="M260.68,228.48c.52,0,.38,3.43,3.22,6s6.51,2.33,6.52,2.81c0,.22-.85.63-2.39.61a8.58,8.58,0,0,1-5.45-2.15,7.48,7.48,0,0,1-2.48-5C260,229.29,260.45,228.45,260.68,228.48Z" style="fill:#263238"></path><path d="M262.36,193.72c-.3.86-3.47.49-7.18,1s-6.7,1.53-7.2.77c-.23-.37.29-1.19,1.49-2a12,12,0,0,1,5.33-1.93,12.1,12.1,0,0,1,5.63.6C261.8,192.64,262.49,193.31,262.36,193.72Z" style="fill:#263238"></path><path d="M291.67,199c-.77.56-3-.73-5.81-1.43s-5.38-.76-5.76-1.62c-.17-.42.38-1,1.59-1.44a9.5,9.5,0,0,1,9.33,2.46C291.86,197.88,292,198.68,291.67,199Z" style="fill:#263238"></path><path d="M274.22,161.1a51,51,0,0,1-6,26.93,18.55,18.55,0,0,1-4.74,6.13,8.34,8.34,0,0,1-7.31,1.7A31.09,31.09,0,0,0,264,178.64c-3.26,6.27-6.61,12.64-11.65,17.59s-12.16,8.3-19.12,7.09l.86-4.66c-1.3,3.28-3.26,6.47-6.28,8.28s-7.29,1.88-9.83-.57c3.3-11.25-2.69-24.25,2.6-34.71,3.66-7.25,11.81-11.1,19.72-12.91a64.76,64.76,0,0,1,33.83,1.42" style="fill:#263238"></path><path d="M273.25,161.21l.06.5-.08,0C273.24,161.56,273.24,161.38,273.25,161.21Z" style="fill:#263238"></path><path d="M273.31,161.71l1.44-.46c4.49-1.87,7.52-4.17,13.74,2.31a41.61,41.61,0,0,1,8.15,13.69c1.71,4.56,3.58,9.5,3.93,14.36a61.37,61.37,0,0,1-.95,17.58c-3.67-2.89-5.28-7.65-6.15-12.23s-1.23-9.35-3.16-13.59c.34,3.88.68,7.85-.25,11.63a4.8,4.8,0,0,1-1.5,2.76,2,2,0,0,1-2.83-.22,25.15,25.15,0,0,0,1.09-13.76,71.35,71.35,0,0,0-4.12-13.33,68.84,68.84,0,0,1-2.77,23.18,6.05,6.05,0,0,1-1.56,2.93c-1.28,1.09-3.18,1-4.81.59s-3.31-1-4.95-.62A65.91,65.91,0,0,0,273.31,161.71Z" style="fill:#263238"></path><path d="M228.28,272l-37.35,10.74-10.09,124.7s-16.43,41.09-16.43,43l132.24.43-15.88-53.09s18.07-87.24,18.07-92.09c0-1.14,2.76-10.87,4.34-16.37a4,4,0,0,0-2.63-4.92l-29.05-8.79S247.89,296.24,228.28,272Z" style="fill:#455a64"></path><path d="M206,450.67H223.7l1.16-24.27c-1.55-.21-33.85-4-35.73-3.45l-6.91,27.63S205.35,450.69,206,450.67Z" style="fill:#ffbe9d"></path><path d="M184,451s.22.08.54.11c2.66.21,14.91-.9,14.91-.9.51-1.6-.69-6.33-2.22-6.56s-14.57,1-14.57,1-2,.33-2.46,3.8C180,450.59,184,451,184,451Z" style="fill:#ffbe9d"></path><path d="M179.69,444.12c0,.05.22.08.54.11,2.66.21,14.26-.26,14.72-1.68.51-1.61-.5-5.54-2-5.78s-14.57,1-14.57,1-2,.33-2.45,3.8C175.64,443.75,179.69,444.12,179.69,444.12Z" style="fill:#ffbe9d"></path><path d="M177.44,437.37s.21.08.53.11c2.67.21,14.26-.26,14.72-1.69.51-1.6-.49-5.54-2-5.77s-14.56,1-14.56,1-2,.33-2.46,3.8C173.39,437,177.44,437.37,177.44,437.37Z" style="fill:#ffbe9d"></path><path d="M175.31,430.65c0,.05.21.08.53.11,2.67.21,14.26-.26,14.72-1.68.51-1.61-.49-5.54-2-5.78s-14.56,1-14.56,1-2.05.33-2.46,3.8C171.26,430.28,175.31,430.65,175.31,430.65Z" style="fill:#ffbe9d"></path><path d="M193.87,443.65c0,.2-2.53.51-5.63.69s-5.6.16-5.59,0,2.54-.5,5.63-.68S193.88,443.45,193.87,443.65Z" style="fill:#eb996e"></path><path d="M193.74,436.82c0,.2-3.58.58-8,.85s-8,.33-8,.13,3.57-.59,8-.86S193.72,436.61,193.74,436.82Z" style="fill:#eb996e"></path><g style="opacity:0.78"><path d="M193,429.88c0,.21-3.57.59-8,.86s-8,.33-8.06.13,3.57-.59,8-.86S193,429.68,193,429.88Z" style="fill:#eb996e"></path></g><path d="M211.47,425s-15.2-5.35-19.77-5.43c-2,0-7,3.81-7,3.81Z" style="fill:#ffbe9d"></path><path d="M299.94,284.2s22.59,4.6,24.43,28.51,1.37,44.89-.25,58.46c-1.44,12.08-7.47,44.77-11.84,54.22-11.27,24.4-90.56,25.29-90.56,25.29l-10.9-27.19L274.3,399.4h0L281.63,354Z" style="fill:#455a64"></path><path d="M202.19,278.69l-11.26,4c-9,4-45.21,59.38-46.58,63.49-.37,1.12-.89,2.65-1.44,4.29a44.4,44.4,0,0,0,.88,31.46c3.26,7.74,9.08,15,19.45,16.86C187.64,403.21,195,384,195,384l20.32-50.09,6.95-36.9Z" style="fill:#455a64"></path><path d="M160.61,398.21l.6.14a16.93,16.93,0,0,0,1.73.36,39.15,39.15,0,0,0,6.82.33,49.5,49.5,0,0,0,10.68-1.39,15.2,15.2,0,0,0,3-1.1,15.4,15.4,0,0,0,2.8-2,30.12,30.12,0,0,0,5-5.64,176,176,0,0,0,16.86-33.17c5.07-13.1,8.94-28.1,12-44,.65-3.42,1.27-6.82,1.87-10.17a5.58,5.58,0,0,0-1.14-4.55,5.48,5.48,0,0,0-1.86-1.49,18,18,0,0,0-2.32-.77l-18.34-5.38h0a6.16,6.16,0,0,0-4-.25,7.6,7.6,0,0,0-3.32,2.17,13.45,13.45,0,0,0-1.25,1.57c-.38.54-.69,1.14-1.08,1.71-.74,1.11-1.48,2.21-2.2,3.31l-8.31,12.44-13.7,20.51c-3.84,5.71-6.88,10.25-9,13.38L153,347.74l-.63.91c-.14.21-.22.31-.22.31s.06-.12.19-.33l.59-.93c.55-.83,1.33-2,2.35-3.6l8.87-13.46,13.61-20.57L186,297.6l2.2-3.31c.37-.54.68-1.15,1.08-1.72a14.1,14.1,0,0,1,1.29-1.62,8.1,8.1,0,0,1,3.54-2.31,6.56,6.56,0,0,1,4.3.25h0l18.35,5.36a18.25,18.25,0,0,1,2.4.8,6,6,0,0,1,2,1.62,6.09,6.09,0,0,1,1.25,5c-.6,3.36-1.21,6.75-1.87,10.18-3,15.93-6.93,31-12,44.08a174,174,0,0,1-17,33.21,30.44,30.44,0,0,1-5.05,5.69,12.63,12.63,0,0,1-6,3.13,48.56,48.56,0,0,1-10.76,1.31,35.53,35.53,0,0,1-6.83-.43,13,13,0,0,1-1.74-.41Z" style="fill:#263238"></path><path d="M145.58,357a12.93,12.93,0,0,1,1.09-2.84,36.59,36.59,0,0,1,3.75-6.33,50,50,0,0,1,4.84-5.54,15.66,15.66,0,0,1,2.28-2,21.93,21.93,0,0,1-2,2.28,70.94,70.94,0,0,0-4.69,5.59,47.63,47.63,0,0,0-3.84,6.18A22.64,22.64,0,0,1,145.58,357Z" style="fill:#263238"></path><path d="M297.06,438.05a1.9,1.9,0,0,1-.29.24l-.9.69a24.7,24.7,0,0,1-3.77,2.2A70.55,70.55,0,0,1,276.62,446c-13.54,2.86-32.85,4.68-54.9,4.92h-.17l-.07-.16c-2.29-5.71-4.66-11.64-7.1-17.7-1.3-3.25-2.58-6.46-3.8-9.48l-.1-.25.26-.09c11.39-4.12,22-8.45,31.61-12.24s18.23-7.19,25.58-9.63a25.78,25.78,0,0,1,5.42-1.15,12.64,12.64,0,0,1,4.9.49,15.33,15.33,0,0,1,6.46,4.37,40.72,40.72,0,0,1,3.1,3.83l.74,1.05c.16.24.23.37.23.37s-.1-.11-.27-.34l-.78-1a43.11,43.11,0,0,0-3.15-3.76,15.24,15.24,0,0,0-6.41-4.23c-2.91-.94-6.49-.47-10.13.72-7.31,2.48-15.91,5.92-25.52,9.73s-20.2,8.17-31.61,12.29l.15-.34c1.22,3,2.5,6.24,3.81,9.49l7.09,17.7-.24-.16c22-.22,41.31-2,54.83-4.73A71.82,71.82,0,0,0,292,441a28.35,28.35,0,0,0,3.8-2.1l.92-.65A1.94,1.94,0,0,1,297.06,438.05Z" style="fill:#263238"></path><g style="opacity:0.30000000000000004"><path d="M181.65,397.46c5.13.45,6.71,1.33,10.86-1.74s7.72-5.25,11.43-13.44c8.69-19.19,15.29-42.55,14.77-62.46-1.57,7.31-4.34,17.43-7.05,26.3-1.77,5.8-5,12.48-7,17.74-5,13.31-13.8,30.46-23,33.6"></path></g><path d="M239.77,380.19a4.39,4.39,0,0,1-.71-.81c-.43-.54-1-1.35-1.68-2.39a44.33,44.33,0,0,1-6.6-18c-.16-1.22-.25-2.21-.27-2.9a4,4,0,0,1,0-1.07c.08,0,.21,1.51.61,3.92a53.65,53.65,0,0,0,2.45,9.22,52.25,52.25,0,0,0,4.11,8.61C239,378.9,239.84,380.14,239.77,380.19Z" style="fill:#263238"></path><path d="M211.66,346.49a2.5,2.5,0,0,1-.34.55,4.87,4.87,0,0,1-1.41,1.18,11.1,11.1,0,0,1-6.65.93,8.48,8.48,0,0,1-2.19-.61,4.29,4.29,0,0,1-1.74-1.79,11.05,11.05,0,0,1-1.25-5.24,35.07,35.07,0,0,0-.39-5.82,6.73,6.73,0,0,0-1.22-2.71,5.54,5.54,0,0,0-2.46-1.76,11.48,11.48,0,0,0-6.1,0c-2,.44-3.83,1.14-5.69,1.51a10.92,10.92,0,0,1-5.39,0,6.9,6.9,0,0,1-3.74-2.82,9.78,9.78,0,0,1-1.41-3.6,13.94,13.94,0,0,1-.25-2.9,13.43,13.43,0,0,1,.15-1.83,2.92,2.92,0,0,1,.13-.63s-.1.88-.08,2.46a14.83,14.83,0,0,0,.33,2.84,9.5,9.5,0,0,0,1.44,3.45,6.37,6.37,0,0,0,3.56,2.61,10.38,10.38,0,0,0,5.16,0c1.82-.37,3.66-1.08,5.68-1.54a11.86,11.86,0,0,1,6.39.05,6,6,0,0,1,2.69,1.93,7,7,0,0,1,1.3,2.92,33.79,33.79,0,0,1,.38,5.91,10.76,10.76,0,0,0,1.14,5,3.94,3.94,0,0,0,1.55,1.65,8.17,8.17,0,0,0,2.07.61,11.21,11.21,0,0,0,6.49-.75A5.65,5.65,0,0,0,211.66,346.49Z" style="fill:#fff"></path><path d="M165.72,400.11a1.87,1.87,0,0,1-.52-.08,4.45,4.45,0,0,1-1.39-.65,7.68,7.68,0,0,1-2.83-4.76c-.6-2.35-.09-5.2-.09-8.26a10.5,10.5,0,0,0-.91-4.63,12,12,0,0,0-3.21-3.93c-2.71-2.28-5.77-4-7.75-6.51a16.09,16.09,0,0,1-3.3-7.58,15.49,15.49,0,0,1,.16-5.57,11.69,11.69,0,0,1,.43-1.46,1.58,1.58,0,0,1,.2-.49c.06,0-.2.7-.43,2a16.54,16.54,0,0,0,0,5.49A16,16,0,0,0,149.4,371c1.91,2.41,4.94,4.09,7.7,6.41a12.27,12.27,0,0,1,3.34,4.11,10.8,10.8,0,0,1,.93,4.85c0,3.13-.57,5.91,0,8.18a7.7,7.7,0,0,0,2.59,4.68A6.72,6.72,0,0,0,165.72,400.11Z" style="fill:#fff"></path><path d="M280.76,327.08a3.84,3.84,0,0,1-.43.56,4.66,4.66,0,0,1-.59.62,7.26,7.26,0,0,1-.89.77,12.12,12.12,0,0,1-7,2.43,12,12,0,0,1-5.09-.89,9.6,9.6,0,0,1-1.29-.63,10.62,10.62,0,0,1-1.23-.83,16.34,16.34,0,0,1-2.2-2.13,27.47,27.47,0,0,0-4.5-4.59,8.32,8.32,0,0,0-6.48-1.17,21.2,21.2,0,0,0-6.37,2.57,43.65,43.65,0,0,1-5.83,2.94,16.91,16.91,0,0,1-17.32-3.7,12.77,12.77,0,0,1-1.34-1.52,2.94,2.94,0,0,1-.4-.58c.05,0,.6.77,1.88,1.95A17.21,17.21,0,0,0,228,326.5a16.38,16.38,0,0,0,10.67-.21,44.83,44.83,0,0,0,5.75-3,21.35,21.35,0,0,1,6.52-2.63,10.49,10.49,0,0,1,3.62-.08,8.07,8.07,0,0,1,3.25,1.34,27.27,27.27,0,0,1,4.57,4.7,12.13,12.13,0,0,0,4.52,3.5,11.84,11.84,0,0,0,4.92.93,12.21,12.21,0,0,0,6.87-2.23A21,21,0,0,0,280.76,327.08Z" style="fill:#fff"></path><path d="M270.47,396.05a7.78,7.78,0,0,0-2.71-1.81c-2-.77-5.18-.76-8.77.45-1.8.59-3.7,1.5-5.84,2.23a14.9,14.9,0,0,1-7.13,1,8.57,8.57,0,0,1-3.66-1.48,22.17,22.17,0,0,1-3.09-2.66,27.14,27.14,0,0,0-3.09-2.77,8.27,8.27,0,0,0-3.82-1.6,9.92,9.92,0,0,0-4.16.37,27.42,27.42,0,0,0-3.88,1.47,42.2,42.2,0,0,1-7.37,3,22.45,22.45,0,0,1-13.31-.91,21.83,21.83,0,0,1-7.58-4.91l-1-1.05c-.27-.31-.47-.6-.64-.82a4.07,4.07,0,0,1-.49-.71,6,6,0,0,1,.57.64c.19.21.4.49.68.79l1,1a22.49,22.49,0,0,0,20.63,5.51,43.5,43.5,0,0,0,7.28-3,27.82,27.82,0,0,1,3.95-1.51,10.68,10.68,0,0,1,4.37-.39,8.83,8.83,0,0,1,4,1.7,27.7,27.7,0,0,1,3.15,2.82c1.9,1.93,4,3.7,6.47,4a14.64,14.64,0,0,0,6.92-.93c2.12-.71,4-1.58,5.85-2.17,3.66-1.18,7-1.14,9-.29a7.16,7.16,0,0,1,2.08,1.34A4.78,4.78,0,0,1,270.47,396.05Z" style="fill:#fff"></path><path d="M247.42,449.89a1.24,1.24,0,0,1-.46,0,3.33,3.33,0,0,1-1.19-.55,5.31,5.31,0,0,1-2-4.28c0-2.11,1.13-4.35,2.29-6.7a13.73,13.73,0,0,0,1.3-3.86,5.68,5.68,0,0,0-.87-4.09,9.64,9.64,0,0,0-3.26-2.84,35.93,35.93,0,0,0-3.74-1.76c-2.43-1-4.65-2.32-5.72-4.16a5.67,5.67,0,0,1-.69-4.68,3.38,3.38,0,0,1,.65-1.14c.21-.22.32-.32.34-.31a5.07,5.07,0,0,0-.8,1.51,5.6,5.6,0,0,0,.81,4.43c1,1.69,3.18,2.91,5.6,3.91a36.26,36.26,0,0,1,3.81,1.75,10.18,10.18,0,0,1,3.43,3,6.19,6.19,0,0,1,.95,4.45,13.9,13.9,0,0,1-1.38,4c-1.2,2.36-2.32,4.51-2.35,6.49a5.2,5.2,0,0,0,1.74,4.12A4.61,4.61,0,0,0,247.42,449.89Z" style="fill:#fff"></path><path d="M318.76,397.18a13.27,13.27,0,0,0-1.31-1.66,8.64,8.64,0,0,0-5-2.49,7.92,7.92,0,0,0-3.84.48,30.51,30.51,0,0,0-4.09,2,12.68,12.68,0,0,1-4.85,1.71,9.85,9.85,0,0,1-5.4-1.19c-3.43-1.75-5.79-4.57-8.2-6.68s-4.93-3.71-7.36-3.93a7.65,7.65,0,0,0-5.43,1.22,8.39,8.39,0,0,0-1.46,1.51,1.92,1.92,0,0,1,.26-.49,5.48,5.48,0,0,1,1.07-1.18,7.72,7.72,0,0,1,5.6-1.42,9.86,9.86,0,0,1,3.87,1.21,19.89,19.89,0,0,1,3.77,2.72c2.46,2.12,4.81,4.89,8.11,6.58a9.63,9.63,0,0,0,5.12,1.15,12.39,12.39,0,0,0,4.67-1.64,31.75,31.75,0,0,1,4.17-2,8.31,8.31,0,0,1,4-.43,8.62,8.62,0,0,1,5.12,2.71A5.44,5.44,0,0,1,318.76,397.18Z" style="fill:#fff"></path><path d="M325.94,329.15a5.39,5.39,0,0,0-2,.49,7.68,7.68,0,0,0-1.95,1.43c-.7.65-1.43,1.47-2.32,2.31a7.74,7.74,0,0,1-3.42,2.1,8.4,8.4,0,0,1-4.6-.37c-1.55-.48-3.08-1.2-4.72-1.73a9.37,9.37,0,0,0-5.17-.45,12.78,12.78,0,0,0-4.73,2.29,36.47,36.47,0,0,0-3.74,3.29c-2.28,2.24-4.51,4.21-6.83,5.13a9.05,9.05,0,0,1-5.7.53,6,6,0,0,1-1.46-.59,2.59,2.59,0,0,1-.44-.32,10.17,10.17,0,0,0,1.95.72,9.13,9.13,0,0,0,5.51-.68c2.22-.92,4.38-2.88,6.64-5.13a34.58,34.58,0,0,1,3.77-3.36,13.2,13.2,0,0,1,4.92-2.39,10,10,0,0,1,5.44.47c1.67.56,3.2,1.28,4.71,1.77a8.12,8.12,0,0,0,4.34.4,7.61,7.61,0,0,0,3.28-1.95c1.74-1.64,3.11-3.15,4.43-3.66a4.07,4.07,0,0,1,1.54-.35A1.77,1.77,0,0,1,325.94,329.15Z" style="fill:#fff"></path><path d="M297.21,293.27s-.22-.48-.79-1.2a6.84,6.84,0,0,0-3.18-2.13,12.89,12.89,0,0,0-5.72-.49,53,53,0,0,1-7.2.69,10.69,10.69,0,0,1-6.75-2.59,10.37,10.37,0,0,1-3.58-9,9.56,9.56,0,0,1,.19-1.07c.07-.24.11-.36.13-.36s-.07.52-.12,1.45a11.18,11.18,0,0,0,.52,3.86,10.09,10.09,0,0,0,3.17,4.71,10.35,10.35,0,0,0,6.46,2.44,56,56,0,0,0,7.13-.65,12.8,12.8,0,0,1,5.89.63,6.68,6.68,0,0,1,3.23,2.35,4,4,0,0,1,.51,1C297.19,293.14,297.23,293.27,297.21,293.27Z" style="fill:#fff"></path><path d="M160.53,336.61a3.73,3.73,0,0,1-1.23-1.07,10.49,10.49,0,0,1-2.52-7.32,3.55,3.55,0,0,1,.31-1.6,18.16,18.16,0,0,0,.75,5.33A18.66,18.66,0,0,0,160.53,336.61Z" style="fill:#fff"></path><path d="M183,301.87c-.14.07-.92-1.35-2.38-2.64s-2.94-2-2.88-2.09a7.43,7.43,0,0,1,5.26,4.73Z" style="fill:#fff"></path><path d="M230.49,270.79c-.13-6.05,6.39-12.39,6.21-18.43-.2-6.41-3.83-12.2-5-18.5-2.8-15.3,9.26-30.76,5.37-45.81l-20.05,1-15.29,98.56,40.4,2.18C238.54,283.67,230.64,277.93,230.49,270.79Z" style="fill:#263238"></path><polygon points="241.27 153.33 217.1 241.98 219.32 243.64 243.76 153.92 241.27 153.33" style="fill:#455a64"></polygon><path d="M233.28,157.52c.78.44,58,6,58,6l17-30-.53-1.47S296.94,143.84,292,142.47c-5.08-1.41-3.66-13.66-3.66-13.66l-1.46-.6s-7.83,14-13.6,10.52c-4.62-2.81-3.36-19.47-3.36-19.47h-2.52s-6.66,18.25-10.2,17.66S249,122.67,249,122.67l-2.58.93s-1.43,12.15-5.44,12.56-12.43-15.46-12.43-15.46l-3.31,1.2Z" style="fill:#BA68C8"></path><path d="M229.56,118.49a3.31,3.31,0,1,1-4.24-2A3.3,3.3,0,0,1,229.56,118.49Z" style="fill:#BA68C8"></path><path d="M229.56,118.49s-.15-.26-.45-.67a3.36,3.36,0,0,0-1.73-1.19,3.11,3.11,0,0,0-3.8,4,3.09,3.09,0,0,0,2.86,2,3.15,3.15,0,0,0,2.63-1.37,3.34,3.34,0,0,0,.57-2c0-.51-.12-.79-.08-.8s.19.24.28.78a3.32,3.32,0,0,1-.46,2.24,3.51,3.51,0,0,1-2.94,1.65,3.54,3.54,0,0,1-2.26-6.28,3.46,3.46,0,0,1,3.31-.6,3.28,3.28,0,0,1,1.78,1.42C229.55,118.18,229.59,118.48,229.56,118.49Z" style="fill:#263238"></path><path d="M251,120a3.31,3.31,0,1,1-4.24-2A3.31,3.31,0,0,1,251,120Z" style="fill:#BA68C8"></path><path d="M251,120s-.15-.26-.45-.67a3.26,3.26,0,0,0-1.73-1.19,3.12,3.12,0,0,0-2.89.62,3.08,3.08,0,0,0,2,5.43,3.13,3.13,0,0,0,2.63-1.38,3.3,3.3,0,0,0,.57-2c0-.51-.12-.79-.08-.8s.19.24.28.78a3.28,3.28,0,0,1-.46,2.23,3.48,3.48,0,0,1-2.94,1.66,3.54,3.54,0,0,1-2.26-6.28,3.46,3.46,0,0,1,3.31-.6,3.3,3.3,0,0,1,1.79,1.42C250.94,119.68,251,120,251,120Z" style="fill:#263238"></path><circle cx="269.01" cy="117.29" r="3.31" style="fill:#BA68C8"></circle><path d="M272.12,116.17s-.15-.26-.45-.67a3.33,3.33,0,0,0-1.72-1.19,3.11,3.11,0,0,0-3.81,4,3.1,3.1,0,0,0,2.87,2,3.13,3.13,0,0,0,2.62-1.37,3.34,3.34,0,0,0,.57-2c0-.51-.12-.79-.08-.8s.19.24.28.78a3.32,3.32,0,0,1-.46,2.24,3.49,3.49,0,0,1-2.94,1.65,3.54,3.54,0,0,1-2.26-6.28,3.47,3.47,0,0,1,3.32-.6,3.32,3.32,0,0,1,1.78,1.42C272.11,115.86,272.15,116.16,272.12,116.17Z" style="fill:#263238"></path><circle cx="256.91" cy="147.16" r="3.31" style="fill:#fff"></circle><path d="M277.38,148.17a3.31,3.31,0,1,1-4.23-2A3.3,3.3,0,0,1,277.38,148.17Z" style="fill:#fff"></path><path d="M294.49,150.31a3.31,3.31,0,1,1-4.23-2A3.31,3.31,0,0,1,294.49,150.31Z" style="fill:#fff"></path><path d="M241.38,145a3.31,3.31,0,1,1-4.24-2A3.31,3.31,0,0,1,241.38,145Z" style="fill:#fff"></path><circle cx="289.04" cy="126.4" r="3.31" transform="translate(134.94 401.67) rotate(-84.38)" style="fill:#BA68C8"></circle><path d="M292.15,125.27s-.15-.26-.45-.67a3.32,3.32,0,0,0-1.72-1.18,3.14,3.14,0,0,0-2.9.62,3.08,3.08,0,1,0,4.58,4,3.3,3.3,0,0,0,.57-2c0-.51-.12-.79-.08-.81s.19.25.28.79a3.3,3.3,0,0,1-.46,2.23,3.45,3.45,0,0,1-2.94,1.65,3.53,3.53,0,0,1-2.26-6.27,3.47,3.47,0,0,1,3.32-.6,3.27,3.27,0,0,1,1.78,1.42C292.14,125,292.18,125.27,292.15,125.27Z" style="fill:#263238"></path><circle cx="309.6" cy="130.66" r="3.31" transform="translate(59.05 354.59) rotate(-64.67)" style="fill:#BA68C8"></circle><path d="M312.72,129.53c-.05,0-.15-.26-.46-.67a3.32,3.32,0,0,0-1.72-1.18,3.09,3.09,0,1,0,1.69,4.67,3.28,3.28,0,0,0,.56-2,6.34,6.34,0,0,1-.07-.81,1.68,1.68,0,0,1,.28.79,3.36,3.36,0,0,1-.46,2.23,3.48,3.48,0,0,1-2.94,1.65,3.53,3.53,0,0,1-2.27-6.27,3.48,3.48,0,0,1,3.32-.6,3.27,3.27,0,0,1,1.78,1.42A1.66,1.66,0,0,1,312.72,129.53Z" style="fill:#263238"></path><path d="M200.5,277.91c-.1-.44-6.69-21.73-6.58-23.9s5-8.06,5-8.06l7.53-13.83,9.83-4.56,8.16,2.86a4,4,0,0,1-4.1,4.18l-4-.33-1.53.74,6,4.87a3,3,0,0,1,1.11,2.09l.78,9.23.83,8.24s3.18,11.82.61,17.93-4.27,6-4.27,6l-3.71,16.47-20-5.94Z" style="fill:#ffbe9d"></path><path d="M200.75,250.73l0,0s0-.06,0-.08l.22-.22c.2-.17.5-.42.9-.73.8-.62,2-1.5,3.49-2.6h0l5-2.76,0,0h.06a7.22,7.22,0,0,1,2.36.43c.78.26,1.57.55,2.37.88,1.62.64,3.29,1.4,5,2.2l.12.06,0,.13.9,5.95.26,1.71a3.27,3.27,0,0,1-.14,1.82,1.81,1.81,0,0,1-1.55,1,3,3,0,0,1-1.71-.41,4.63,4.63,0,0,1-1.95-2.62,6.87,6.87,0,0,1-.22-3l.33.25a3.93,3.93,0,0,1-4.87-1.65l.35-.18a3.2,3.2,0,0,1-.36,3,3,3,0,0,1-2.13,1.37l.12-.14a9.27,9.27,0,0,1-.48,3.25,7.21,7.21,0,0,1-.32.8c-.09.18-.14.27-.16.26s.14-.38.34-1.1a10,10,0,0,0,.34-3.2V255l.12,0a2.75,2.75,0,0,0,1.88-1.28,2.84,2.84,0,0,0,.29-2.65l.35-.17a3.51,3.51,0,0,0,4.34,1.41l.38-.16-.06.41a6.38,6.38,0,0,0,.22,2.83,4.22,4.22,0,0,0,1.74,2.32c.81.49,2.14.53,2.54-.37a2.78,2.78,0,0,0,.09-1.53c-.08-.56-.17-1.13-.25-1.7-.31-2.05-.6-4-.89-5.95l.15.19c-1.73-.8-3.39-1.57-5-2.22a14.22,14.22,0,0,0-4.56-1.33l.1,0-5.1,2.66h0C202.49,249.49,200.63,250.77,200.75,250.73Z" style="fill:#eb996e"></path><path d="M218.72,247.61s.07-.32.07-.87a4.55,4.55,0,0,0-.6-2.24,13.43,13.43,0,0,0-2.23-2.72,40.77,40.77,0,0,0-3.19-3,8.23,8.23,0,0,0-3.62-2.14,5.26,5.26,0,0,0-3.3.69,14.15,14.15,0,0,0-2,1.33,3.41,3.41,0,0,1-.74.5s.19-.26.61-.66a11.67,11.67,0,0,1,1.93-1.49,5.56,5.56,0,0,1,3.56-.85,8.36,8.36,0,0,1,3.88,2.22,37.86,37.86,0,0,1,3.2,3,12.62,12.62,0,0,1,2.2,2.88,4.37,4.37,0,0,1,.49,2.42A1.65,1.65,0,0,1,218.72,247.61Z" style="fill:#eb996e"></path><path d="M209.58,245c.08,0,.08.4-.4.69l-.14.09-.13-.18a3.67,3.67,0,0,1-.47-.91c-.35-.94-.24-1.76-.1-1.75s.28.73.59,1.57c.12.33.24.64.35.88l-.27-.09C209.34,245.16,209.5,244.91,209.58,245Z" style="fill:#eb996e"></path><path d="M206,233.1s.16-.22.52-.55a3.76,3.76,0,0,1,1.87-1,3.58,3.58,0,0,1,1.48.11,10.08,10.08,0,0,1,1.61.45,6.37,6.37,0,0,1,1.59,1l1.54,1.21c2.08,1.67,3.92,3.23,5.22,4.4a11.23,11.23,0,0,1,2,2,22.06,22.06,0,0,1-2.24-1.73l-5.31-4.28-1.52-1.2a6.27,6.27,0,0,0-1.46-.95,11.62,11.62,0,0,0-1.53-.47,3.4,3.4,0,0,0-1.33-.17,4.09,4.09,0,0,0-1.79.82C206.2,233,206,233.13,206,233.1Z" style="fill:#eb996e"></path><path d="M221.06,279a23.83,23.83,0,0,0-1.07-3.56,31.45,31.45,0,0,0-5-7.43c-2.27-2.7-4.26-5.25-5.76-7a3.39,3.39,0,0,0-2.28-1.18,4.1,4.1,0,0,0-1,.13,1.4,1.4,0,0,1,1-.34,3.47,3.47,0,0,1,2.54,1.13c1.62,1.72,3.62,4.19,5.9,6.91a27.75,27.75,0,0,1,5,7.62A11.74,11.74,0,0,1,221,278,3.25,3.25,0,0,1,221.06,279Z" style="fill:#eb996e"></path><path d="M216,253.92c.07,0,0,.5-.18,1.28a3.9,3.9,0,0,1-.64,1.3,2.57,2.57,0,0,1-1.54,1,2.4,2.4,0,0,1-1.78-.45,3.25,3.25,0,0,1-1-1.1c-.39-.71-.48-1.2-.42-1.23s.29.41.73,1a3.34,3.34,0,0,0,.93.9,2,2,0,0,0,1.42.34,2.32,2.32,0,0,0,1.26-.79,4.61,4.61,0,0,0,.67-1.12C215.76,254.37,215.92,253.89,216,253.92Z" style="fill:#eb996e"></path><path d="M231.38,145a15,15,0,0,1-.65-2.65c-.35-1.64-.83-3.91-1.42-6.4s-1.17-4.73-1.6-6.36a15.16,15.16,0,0,1-.61-2.65,13.92,13.92,0,0,1,1,2.55c.52,1.6,1.17,3.84,1.76,6.34s1,4.79,1.27,6.45A13.84,13.84,0,0,1,231.38,145Z" style="fill:#fff"></path><path d="M225.27,122.15s-.28,0-.59-.3a2.68,2.68,0,0,1-.78-1.39,2.63,2.63,0,0,1,.12-1.59c.16-.38.35-.55.41-.52a8.22,8.22,0,0,0,0,2C224.63,121.42,225.36,122,225.27,122.15Z" style="fill:#fff"></path><path d="M245.68,131.25c-.13-.07.4-1.12.7-2.5s.26-2.55.41-2.57a4,4,0,0,1,.1,2.68A3.88,3.88,0,0,1,245.68,131.25Z" style="fill:#fff"></path><path d="M246.53,122.53s-.29,0-.55-.33a2.3,2.3,0,0,1,0-2.9c.27-.31.51-.39.55-.33s-.56.74-.55,1.78S246.62,122.42,246.53,122.53Z" style="fill:#fff"></path><path d="M267.07,118s-.27,0-.54-.27a1.64,1.64,0,0,1,.41-2.56c.33-.18.57-.15.58-.09s-.75.47-.89,1.35S267.15,117.94,267.07,118Z" style="fill:#fff"></path><path d="M267.32,122.9a6.33,6.33,0,0,1-.44,1.93A25.82,25.82,0,0,1,265,129.2a25.43,25.43,0,0,1-2.63,4,5.83,5.83,0,0,1-1.37,1.42c-.12-.1,1.81-2.4,3.54-5.63S267.17,122.85,267.32,122.9Z" style="fill:#fff"></path><path d="M286.51,132.25a12.91,12.91,0,0,1-5.18,6.21c-.09-.12,1.28-1.31,2.69-3S286.37,132.18,286.51,132.25Z" style="fill:#fff"></path><path d="M286.94,127.81c-.06,0-.2-.2-.24-.63a2.53,2.53,0,0,1,.47-1.55,2.45,2.45,0,0,1,1.32-.95c.41-.1.67,0,.68,0s-.94.31-1.57,1.22S287.08,127.78,286.94,127.81Z" style="fill:#fff"></path><path d="M305.13,136.83a16.3,16.3,0,0,1-3,2.79,16.9,16.9,0,0,1-3.34,2.38,32.31,32.31,0,0,1,6.34-5.17Z" style="fill:#fff"></path><path d="M293.48,160.61a3.74,3.74,0,0,1-.63,0l-1.79-.14-6.57-.63-21.67-2.26c-8.45-.93-16.09-2-21.62-2.68l-6.54-.89-1.77-.27a2.91,2.91,0,0,1-.62-.13,2.5,2.5,0,0,1,.63,0l1.79.17,6.56.72c5.54.61,13.18,1.6,21.63,2.53l21.65,2.41,6.55.79,1.78.25A2.64,2.64,0,0,1,293.48,160.61Z" style="fill:#fff"></path><path d="M218.89,300.49a4.51,4.51,0,0,1-1.06-.15c-.67-.13-1.64-.35-2.83-.65-2.38-.6-5.62-1.56-9.18-2.68l-9.13-2.84-2.77-.84a4.33,4.33,0,0,1-1-.35,3.75,3.75,0,0,1,1.05.16c.67.13,1.64.36,2.82.67,2.38.62,5.62,1.59,9.18,2.7s6.78,2.13,9.13,2.82l2.78.81A4,4,0,0,1,218.89,300.49Z" style="fill:#263238"></path><path d="M279.39,339.67c.14,0-1.74,13.74-4.2,30.63s-4.58,30.57-4.72,30.55,1.74-13.73,4.2-30.63S279.24,339.65,279.39,339.67Z" style="fill:#263238"></path><path d="M305.59,287c.05.11-1.95.9-4.77,2.86a36.48,36.48,0,0,0-4.61,3.84,41.91,41.91,0,0,0-4.7,5.65,41.22,41.22,0,0,0-5.7,12c-.92,3.31-1.11,5.44-1.23,5.43a9.15,9.15,0,0,1,.12-1.5,12.7,12.7,0,0,1,.26-1.74c.14-.67.25-1.45.5-2.28A38.48,38.48,0,0,1,291.08,299a39,39,0,0,1,4.8-5.69,32.92,32.92,0,0,1,4.74-3.81,19.18,19.18,0,0,1,2-1.2,13.55,13.55,0,0,1,1.57-.79A9.21,9.21,0,0,1,305.59,287Z" style="fill:#263238"></path></g><g id="freepik--Table--inject-68"><path d="M15.54,450.68c0-.15,105-.26,234.45-.26s234.47.11,234.47.26-105,.26-234.47.26S15.54,450.82,15.54,450.68Z" style="fill:#263238"></path></g></svg>